<?xml version="1.0" encoding="UTF-8"?>
<svg version="1.1" xmlns="http://www.w3.org/2000/svg" width="52" height="32">
<path d="M0 0 C16.5 0 33 0 50 0 C50 9.9 50 19.8 50 30 C43.6813007 30.30380817 37.36943809 30.58555769 31.04858398 30.81176758 C28.89960831 30.8952623 26.75108874 30.99151933 24.60327148 31.10083008 C21.51317448 31.25587078 18.42433586 31.36475265 15.33203125 31.46484375 C14.37351761 31.52284653 13.41500397 31.5808493 12.42744446 31.64060974 C11.52688828 31.66115921 10.62633209 31.68170868 9.69848633 31.70288086 C8.91016922 31.73619003 8.12185211 31.76949921 7.30964661 31.80381775 C5 31 5 31 0 24 C0 16.08 0 8.16 0 0 Z " fill="#AB4740" transform="translate(1,1)"/>
<path d="M0 0 C4.75 0.875 4.75 0.875 7 2 C8.88472859 2.15344209 10.77427874 2.24959571 12.6640625 2.31640625 C13.78554688 2.35830078 14.90703125 2.40019531 16.0625 2.44335938 C17.238125 2.48267578 18.41375 2.52199219 19.625 2.5625 C20.80835937 2.60568359 21.99171875 2.64886719 23.2109375 2.69335938 C26.14050328 2.79967426 29.07015588 2.90170642 32 3 C32.25 10.625 32.25 10.625 30 14 C29.34 14 28.68 14 28 14 C28 14.99 28 15.98 28 17 C21.56303681 19.91485125 16.0544662 20.6175627 9 20 C8.34 19.67 7.68 19.34 7 19 C4.04195427 18.66659529 4.04195427 18.66659529 1 19 C-0.02019573 19.9793879 -1.02149805 20.97895449 -2 22 C-4.88934264 22.4334014 -6.35092224 22.42525784 -8.8125 20.8125 C-10.36678206 18.44017475 -10.22537188 16.77958655 -10 14 C-9.01 14 -8.02 14 -7 14 C-7 13.34 -7 12.68 -7 12 C-5.35 12 -3.7 12 -2 12 C-2 12.66 -2 13.32 -2 14 C-1.34 13.67 -0.68 13.34 0 13 C0.33 12.01 0.66 11.02 1 10 C0.01 10 -0.98 10 -2 10 C-3.02104551 9.02149805 -4.0206121 8.02019573 -5 7 C-5.99 6.67 -6.98 6.34 -8 6 C-7.67 4.35 -7.34 2.7 -7 1 C-4.69 1.66 -2.38 2.32 0 3 C0 2.01 0 1.02 0 0 Z " fill="#6B4C4B" transform="translate(16,6)"/>
<path d="M0 0 C16.5 0 33 0 50 0 C50 9.9 50 19.8 50 30 C43.6813007 30.30380817 37.36943809 30.58555769 31.04858398 30.81176758 C28.89960831 30.8952623 26.75108874 30.99151933 24.60327148 31.10083008 C21.51317448 31.25587078 18.42433586 31.36475265 15.33203125 31.46484375 C14.37351761 31.52284653 13.41500397 31.5808493 12.42744446 31.64060974 C11.52688828 31.66115921 10.62633209 31.68170868 9.69848633 31.70288086 C8.91016922 31.73619003 8.12185211 31.76949921 7.30964661 31.80381775 C5 31 5 31 0 24 C0 16.08 0 8.16 0 0 Z M1 1 C1 8.26 1 15.52 1 23 C5.8970969 29.24244249 5.8970969 29.24244249 9.625 29.125 C12.12634913 28.11733201 12.12634913 28.11733201 13.9375 25.9375 C16 24 16 24 19.125 23.6875 C22 24 22 24 24 25 C31.0544662 25.6175627 36.56303681 24.91485125 43 22 C43 21.01 43 20.02 43 19 C43.66 19 44.32 19 45 19 C49.7750332 12.28510957 49 10.35733824 49 1 C33.16 1 17.32 1 1 1 Z " fill="#B9483E" transform="translate(1,1)"/>
<path d="M0 0 C0.86512207 0.32145996 1.73024414 0.64291992 2.62158203 0.97412109 C5.92725636 1.97791091 8.61630177 2.30772067 12.0546875 2.4140625 C13.16328125 2.45273438 14.271875 2.49140625 15.4140625 2.53125 C17.12722656 2.57765625 17.12722656 2.57765625 18.875 2.625 C20.0403125 2.66367188 21.205625 2.70234375 22.40625 2.7421875 C25.27067864 2.83610319 28.13510692 2.92177983 31 3 C31 3.99 31 4.98 31 6 C29.02 6 27.04 6 25 6 C26.32 6.33 27.64 6.66 29 7 C29 8.32 29 9.64 29 11 C28.01 11.66 27.02 12.32 26 13 C25.31731862 14.32520503 24.6492959 15.65812182 24 17 C20.96673215 18.51663393 18.121154 18.17097474 14.75 18.1875 C13.44546875 18.20167969 12.1409375 18.21585938 10.796875 18.23046875 C7.15198592 18.00922548 4.38106107 17.32827399 1 16 C1 14.35 1 12.7 1 11 C1.66 10.67 2.32 10.34 3 10 C3.33 10.66 3.66 11.32 4 12 C4.66 12 5.32 12 6 12 C6.66 10.68 7.32 9.36 8 8 C9.32 8.66 10.64 9.32 12 10 C12 10.66 12 11.32 12 12 C12.99 11.67 13.98 11.34 15 11 C15.33 10.01 15.66 9.02 16 8 C16.66 8 17.32 8 18 8 C18 7.34 18 6.68 18 6 C15.69 6 13.38 6 11 6 C11.66 6.66 12.32 7.32 13 8 C8.14036821 7.39254603 4.2594482 5.27241033 0 3 C0 2.01 0 1.02 0 0 Z " fill="#ECECEC" transform="translate(17,6)"/>
<path d="M0 0 C16.5 0 33 0 50 0 C50 9.9 50 19.8 50 30 C43.6813007 30.30380817 37.36943809 30.58555769 31.04858398 30.81176758 C28.89960831 30.8952623 26.75108874 30.99151933 24.60327148 31.10083008 C21.51317448 31.25587078 18.42433586 31.36475265 15.33203125 31.46484375 C14.37351761 31.52284653 13.41500397 31.5808493 12.42744446 31.64060974 C11.52688828 31.66115921 10.62633209 31.68170868 9.69848633 31.70288086 C8.91016922 31.73619003 8.12185211 31.76949921 7.30964661 31.80381775 C5 31 5 31 0 24 C0 16.08 0 8.16 0 0 Z M1 1 C1 8.26 1 15.52 1 23 C5.93567572 28.865241 5.93567572 28.865241 9.31600952 29.7215271 C10.04881134 29.70820343 10.78161316 29.69487976 11.53662109 29.68115234 C12.37703949 29.68069916 13.21745789 29.68024597 14.08334351 29.67977905 C14.97107452 29.64881134 15.85880554 29.61784363 16.7734375 29.5859375 C17.6971817 29.57744781 18.6209259 29.56895813 19.57266235 29.56021118 C22.50798764 29.5267631 25.44051261 29.45150164 28.375 29.375 C30.37105393 29.34488921 32.36715114 29.31751536 34.36328125 29.29296875 C39.24412024 29.23211041 44.11894634 29.11469839 49 29 C49 19.76 49 10.52 49 1 C33.16 1 17.32 1 1 1 Z " fill="#FA6457" transform="translate(1,1)"/>
<path d="M0 0 C0.86512207 0.32145996 1.73024414 0.64291992 2.62158203 0.97412109 C5.92725636 1.97791091 8.61630177 2.30772067 12.0546875 2.4140625 C13.16328125 2.45273438 14.271875 2.49140625 15.4140625 2.53125 C17.12722656 2.57765625 17.12722656 2.57765625 18.875 2.625 C20.0403125 2.66367188 21.205625 2.70234375 22.40625 2.7421875 C25.27067864 2.83610319 28.13510692 2.92177983 31 3 C31 3.99 31 4.98 31 6 C24.4 6 17.8 6 11 6 C11.66 6.66 12.32 7.32 13 8 C8.14036821 7.39254603 4.2594482 5.27241033 0 3 C0 2.01 0 1.02 0 0 Z " fill="#F5F4F4" transform="translate(17,6)"/>
<path d="M0 0 C0.66 0.33 1.32 0.66 2 1 C0.25 4.875 0.25 4.875 -2 6 C-4.41428322 6.12417964 -6.83255432 6.17564978 -9.25 6.1875 C-10.55453125 6.20167969 -11.8590625 6.21585938 -13.203125 6.23046875 C-16.84801408 6.00922548 -19.61893893 5.32827399 -23 4 C-23 3.67 -23 3.34 -23 3 C-21.75863281 2.95101563 -20.51726563 2.90203125 -19.23828125 2.8515625 C-17.59633306 2.77650201 -15.95440703 2.70095561 -14.3125 2.625 C-13.49587891 2.5940625 -12.67925781 2.563125 -11.83789062 2.53125 C-7.42819275 2.31701367 -4.08499131 1.7964589 0 0 Z " fill="#C4C2C2" transform="translate(41,18)"/>
<path d="M0 0 C1.32 0.66 2.64 1.32 4 2 C4 2.66 4 3.32 4 4 C5.32 3.67 6.64 3.34 8 3 C8.33 3.99 8.66 4.98 9 6 C5.57767028 7.14077657 2.91326783 7.09815117 -0.6875 7.0625 C-2.45673828 7.04896484 -2.45673828 7.04896484 -4.26171875 7.03515625 C-5.16535156 7.02355469 -6.06898437 7.01195312 -7 7 C-6.67 5.35 -6.34 3.7 -6 2 C-4.68 2.66 -3.36 3.32 -2 4 C-1.34 2.68 -0.68 1.36 0 0 Z " fill="#E6E5E5" transform="translate(25,14)"/>
<path d="M0 0 C4.8274799 1.41292095 8.7162359 3.42974154 13 6 C13 6.66 13 7.32 13 8 C7.60713425 7.56857074 4.19513682 6.47889394 0 3 C0 2.01 0 1.02 0 0 Z " fill="#EEEAEA" transform="translate(9,7)"/>
<path d="M0 0 C3.3 0 6.6 0 10 0 C9.67 0.99 9.34 1.98 9 3 C8.34 3 7.68 3 7 3 C6.67 4.32 6.34 5.64 6 7 C5.01 7 4.02 7 3 7 C0.8125 4.5 0.8125 4.5 -1 2 C-0.01 2 0.98 2 2 2 C1.34 1.34 0.68 0.68 0 0 Z " fill="#D2D2D2" transform="translate(26,11)"/>
<path d="M0 0 C0.33 0.99 0.66 1.98 1 3 C3.37625345 4.18391223 3.37625345 4.18391223 6 5 C6.99 5.33 7.98 5.66 9 6 C8.67 7.98 8.34 9.96 8 12 C4 12 4 12 2 11 C2 10.34 2 9.68 2 9 C3.32 9 4.64 9 6 9 C3.83312509 6.72478134 1.54379491 4.84205838 -1 3 C-0.67 2.01 -0.34 1.02 0 0 Z " fill="#7C7B7B" transform="translate(16,6)"/>
<path d="M0 0 C7.59 0 15.18 0 23 0 C23 0.99 23 1.98 23 3 C22.01902344 2.84660156 21.03804687 2.69320313 20.02734375 2.53515625 C15.88191268 1.94295181 11.74129305 1.67071718 7.5625 1.4375 C6.83095703 1.39431641 6.09941406 1.35113281 5.34570312 1.30664062 C3.56395285 1.20183179 1.78199598 1.10054479 0 1 C0 0.67 0 0.34 0 0 Z " fill="#D5D5D5" transform="translate(25,9)"/>
<path d="M0 0 C0.99 0 1.98 0 3 0 C3 0.99 3 1.98 3 3 C3.99 3 4.98 3 6 3 C6 3.66 6 4.32 6 5 C5.01 5 4.02 5 3 5 C3 5.99 3 6.98 3 8 C2.01 8 1.02 8 0 8 C0 7.01 0 6.02 0 5 C-0.66 5 -1.32 5 -2 5 C-2 4.34 -2 3.68 -2 3 C-1.34 3 -0.68 3 0 3 C0 2.01 0 1.02 0 0 Z " fill="#DFD8D6" transform="translate(10,19)"/>
<path d="M0 0 C2.31 0.33 4.62 0.66 7 1 C7.20086443 4.71599191 7.1519437 5.77208445 5 9 C4.34 9 3.68 9 3 9 C3 9.66 3 10.32 3 11 C2.34 10.67 1.68 10.34 1 10 C1 9.01 1 8.02 1 7 C2.32 6.67 3.64 6.34 5 6 C5 4.68 5 3.36 5 2 C3.35 1.67 1.7 1.34 0 1 C0 0.67 0 0.34 0 0 Z " fill="#7F6863" transform="translate(41,11)"/>
<path d="M0 0 C1.65 0 3.3 0 5 0 C5 0.66 5 1.32 5 2 C5.66 2 6.32 2 7 2 C7 2.66 7 3.32 7 4 C6.01 4 5.02 4 4 4 C4 3.01 4 2.02 4 1 C3.01 1 2.02 1 1 1 C1 1.99 1 2.98 1 4 C0.34 4 -0.32 4 -1 4 C-1.33 4.66 -1.66 5.32 -2 6 C-2.33 4.68 -2.66 3.36 -3 2 C-2.01 2 -1.02 2 0 2 C0 1.34 0 0.68 0 0 Z " fill="#735C5A" transform="translate(9,18)"/>
<path d="M0 0 C0.99 0 1.98 0 3 0 C2.34 1.98 1.68 3.96 1 6 C0.01 6 -0.98 6 -2 6 C-2 5.01 -2 4.02 -2 3 C-1.34 3 -0.68 3 0 3 C0 2.01 0 1.02 0 0 Z " fill="#525252" transform="translate(31,12)"/>
<path d="M0 0 C2.88437779 1.29299694 4.87219421 2.65941363 7 5 C6.67 5.66 6.34 6.32 6 7 C1.125 3.375 1.125 3.375 0 0 Z " fill="#E96252" transform="translate(1,24)"/>
<path d="M0 0 C2.475 0.495 2.475 0.495 5 1 C4.01 1.99 3.02 2.98 2 4 C2.33 4.66 2.66 5.32 3 6 C2.01 6 1.02 6 0 6 C0 4.02 0 2.04 0 0 Z " fill="#A8534D" transform="translate(6,4)"/>
</svg>
