<?xml version="1.0" encoding="UTF-8"?>
<svg version="1.1" xmlns="http://www.w3.org/2000/svg" width="52" height="32">
<path d="M0 0 C16.5 0 33 0 50 0 C50 9.9 50 19.8 50 30 C43.6813007 30.30380817 37.36943809 30.58555769 31.04858398 30.81176758 C28.89960831 30.8952623 26.75108874 30.99151933 24.60327148 31.10083008 C21.51317448 31.25587078 18.42433586 31.36475265 15.33203125 31.46484375 C14.37351761 31.52284653 13.41500397 31.5808493 12.42744446 31.64060974 C11.52688828 31.66115921 10.62633209 31.68170868 9.69848633 31.70288086 C8.91016922 31.73619003 8.12185211 31.76949921 7.30964661 31.80381775 C5 31 5 31 0 24 C0 16.08 0 8.16 0 0 Z " fill="#2BA37D" transform="translate(1,1)"/>
<path d="M0 0 C7.92 0 15.84 0 24 0 C25.46861889 2.93723778 25.24793404 5.60592357 25.3125 8.875 C25.34988281 10.10992187 25.38726562 11.34484375 25.42578125 12.6171875 C25 16 25 16 23.35107422 18.18481445 C20.35248794 20.49992234 18.71400179 20.47737154 14.95703125 20.42578125 C13.22356445 20.41321289 13.22356445 20.41321289 11.45507812 20.40039062 C9.65200195 20.35688477 9.65200195 20.35688477 7.8125 20.3125 C5.99202148 20.29799805 5.99202148 20.29799805 4.13476562 20.28320312 C-4.8322084 20.1677916 -4.8322084 20.1677916 -6 19 C-6.07313567 16.46950598 -6.09247527 13.96695163 -6.0625 11.4375 C-6.05798828 10.72658203 -6.05347656 10.01566406 -6.04882812 9.28320312 C-6.03700864 7.52209987 -6.01907263 5.76103964 -6 4 C-4.7934375 3.566875 -4.7934375 3.566875 -3.5625 3.125 C-0.8673532 2.26737432 -0.8673532 2.26737432 0 0 Z " fill="#6A7471" transform="translate(18,6)"/>
<path d="M0 0 C16.5 0 33 0 50 0 C50 9.9 50 19.8 50 30 C43.6813007 30.30380817 37.36943809 30.58555769 31.04858398 30.81176758 C28.89960831 30.8952623 26.75108874 30.99151933 24.60327148 31.10083008 C21.51317448 31.25587078 18.42433586 31.36475265 15.33203125 31.46484375 C14.37351761 31.52284653 13.41500397 31.5808493 12.42744446 31.64060974 C11.52688828 31.66115921 10.62633209 31.68170868 9.69848633 31.70288086 C8.91016922 31.73619003 8.12185211 31.76949921 7.30964661 31.80381775 C5 31 5 31 0 24 C0 16.08 0 8.16 0 0 Z M1 1 C1 8.26 1 15.52 1 23 C5.93567572 28.865241 5.93567572 28.865241 9.31600952 29.7215271 C10.04881134 29.70820343 10.78161316 29.69487976 11.53662109 29.68115234 C12.37703949 29.68069916 13.21745789 29.68024597 14.08334351 29.67977905 C14.97107452 29.64881134 15.85880554 29.61784363 16.7734375 29.5859375 C17.6971817 29.57744781 18.6209259 29.56895813 19.57266235 29.56021118 C22.50798764 29.5267631 25.44051261 29.45150164 28.375 29.375 C30.37105393 29.34488921 32.36715114 29.31751536 34.36328125 29.29296875 C39.24412024 29.23211041 44.11894634 29.11469839 49 29 C49 19.76 49 10.52 49 1 C33.16 1 17.32 1 1 1 Z " fill="#3DDDAB" transform="translate(1,1)"/>
<path d="M0 0 C0.66 0 1.32 0 2 0 C2 1.98 2 3.96 2 6 C2.66 6 3.32 6 4 6 C4 4.02 4 2.04 4 0 C4.66 0 5.32 0 6 0 C6 3.3 6 6.6 6 10 C6.66 10 7.32 10 8 10 C8 6.7 8 3.4 8 0 C11.63 0 15.26 0 19 0 C19 3.3 19 6.6 19 10 C16.29283758 10.90238747 14.76223232 11.11851302 11.98828125 11.09765625 C10.85229492 11.09282227 10.85229492 11.09282227 9.69335938 11.08789062 C8.90767578 11.07951172 8.12199219 11.07113281 7.3125 11.0625 C6.51521484 11.05798828 5.71792969 11.05347656 4.89648438 11.04882812 C2.93095743 11.0370585 0.96546915 11.01912348 -1 11 C-1.33 9.35 -1.66 7.7 -2 6 C-1.34 6 -0.68 6 0 6 C0 4.02 0 2.04 0 0 Z " fill="#8F9C98" transform="translate(15,14)"/>
<path d="M0 0 C7.59 0 15.18 0 23 0 C23 4.29 23 8.58 23 13 C21.35 13 19.7 13 18 13 C18.99 12.67 19.98 12.34 21 12 C21 8.7 21 5.4 21 2 C20.01 2 19.02 2 18 2 C18 4.97 18 7.94 18 11 C17.67 11 17.34 11 17 11 C17 8.03 17 5.06 17 2 C16.01 2 15.02 2 14 2 C14 4.97 14 7.94 14 11 C13.67 11 13.34 11 13 11 C13 8.03 13 5.06 13 2 C12.01 2 11.02 2 10 2 C10 5.3 10 8.6 10 12 C9.34 12 8.68 12 8 12 C8 8.7 8 5.4 8 2 C7.34 2 6.68 2 6 2 C6 3.98 6 5.96 6 8 C5.34 8 4.68 8 4 8 C4 6.02 4 4.04 4 2 C3.34 2 2.68 2 2 2 C2 3.98 2 5.96 2 8 C1.34 8 0.68 8 0 8 C0 5.36 0 2.72 0 0 Z " fill="#DCE0E0" transform="translate(13,12)"/>
<path d="M0 0 C1.53720703 0.01933594 1.53720703 0.01933594 3.10546875 0.0390625 C4.70068359 0.08933594 4.70068359 0.08933594 6.328125 0.140625 C7.94654297 0.16769531 7.94654297 0.16769531 9.59765625 0.1953125 C12.25871288 0.24241085 14.91796754 0.308169 17.578125 0.390625 C15.46981966 2.89803341 14.29720375 4.26334231 11.01269531 4.84472656 C10.07006836 4.8237793 9.12744141 4.80283203 8.15625 4.78125 C6.61904297 4.76191406 6.61904297 4.76191406 5.05078125 4.7421875 C3.45556641 4.69191406 3.45556641 4.69191406 1.828125 4.640625 C0.74917969 4.62257813 -0.32976563 4.60453125 -1.44140625 4.5859375 C-4.10246288 4.53883915 -6.76171754 4.473081 -9.421875 4.390625 C-6.3849168 0.77876936 -4.70660596 -0.10459124 0 0 Z " fill="#EEEEEE" transform="translate(23.421875,6.609375)"/>
<path d="M0 0 C3.96 0 7.92 0 12 0 C12 4.29 12 8.58 12 13 C10.35 13 8.7 13 7 13 C7.99 12.67 8.98 12.34 10 12 C10 8.7 10 5.4 10 2 C9.01 2 8.02 2 7 2 C7 4.97 7 7.94 7 11 C6.67 11 6.34 11 6 11 C6 8.03 6 5.06 6 2 C5.01 2 4.02 2 3 2 C3 4.97 3 7.94 3 11 C2.67 11 2.34 11 2 11 C1.93941406 10.37351562 1.87882812 9.74703125 1.81640625 9.1015625 C1.73261719 8.28429688 1.64882813 7.46703125 1.5625 6.625 C1.48128906 5.81289063 1.40007813 5.00078125 1.31640625 4.1640625 C1.10909886 1.95727195 1.10909886 1.95727195 0 0 Z " fill="#E8E9E9" transform="translate(24,12)"/>
<path d="M0 0 C0.13547465 1.91470844 0.23220869 3.83218481 0.3125 5.75 C0.37050781 6.81734375 0.42851563 7.8846875 0.48828125 8.984375 C0 12 0 12 -2.51953125 14.390625 C-3.33808594 14.92171875 -4.15664063 15.4528125 -5 16 C-5.1080023 13.89695523 -5.18558987 11.79233091 -5.25 9.6875 C-5.31960937 7.92986328 -5.31960937 7.92986328 -5.390625 6.13671875 C-5 3 -5 3 -3.046875 1.08203125 C-1 0 -1 0 0 0 Z " fill="#EEEEEE" transform="translate(42,9)"/>
<path d="M0 0 C0.66 0 1.32 0 2 0 C2 1.98 2 3.96 2 6 C2.66 6 3.32 6 4 6 C4 4.02 4 2.04 4 0 C4.66 0 5.32 0 6 0 C6 2.97 6 5.94 6 9 C3.29120665 10.35439668 0.99066732 10.06501451 -2 10 C-2 8.68 -2 7.36 -2 6 C-1.34 6 -0.68 6 0 6 C0 4.02 0 2.04 0 0 Z " fill="#7A8A85" transform="translate(15,14)"/>
<path d="M0 0 C0.99 0 1.98 0 3 0 C3 2.97 3 5.94 3 9 C2.01 9 1.02 9 0 9 C0 6.03 0 3.06 0 0 Z " fill="#617870" transform="translate(31,14)"/>
<path d="M0 0 C0.33 0.99 0.66 1.98 1 3 C-0.65 4.32 -2.3 5.64 -4 7 C-4 5.35 -4 3.7 -4 2 C-2.68 1.34 -1.36 0.68 0 0 Z " fill="#D9DEDC" transform="translate(41,18)"/>
<path d="M0 0 C2.88437779 1.29299694 4.87219421 2.65941363 7 5 C6.67 5.66 6.34 6.32 6 7 C1.125 3.375 1.125 3.375 0 0 Z " fill="#2FCD9C" transform="translate(1,24)"/>
</svg>
