<?xml version="1.0" encoding="UTF-8"?>
<svg version="1.1" xmlns="http://www.w3.org/2000/svg" width="52" height="32">
<path d="M0 0 C16.5 0 33 0 50 0 C50 9.9 50 19.8 50 30 C43.68122144 30.13786426 37.36766923 30.25726151 31.04858398 30.32958984 C28.89996654 30.35974019 26.75147195 30.40066808 24.60327148 30.45263672 C21.51254977 30.52552773 18.42345641 30.55947388 15.33203125 30.5859375 C13.89426079 30.63238907 13.89426079 30.63238907 12.42744446 30.67977905 C11.52688828 30.68023224 10.62633209 30.68068542 9.69848633 30.68115234 C8.91016922 30.69447601 8.12185211 30.70779968 7.30964661 30.7215271 C5 30 5 30 0 24 C0 16.08 0 8.16 0 0 Z " fill="#2FA782" transform="translate(1,1)"/>
<path d="M0 0 C1.32 0.33 2.64 0.66 4 1 C4 1.66 4 2.32 4 3 C5.65 2.67 7.3 2.34 9 2 C9.99 3.485 9.99 3.485 11 5 C10.67 5.99 10.34 6.98 10 8 C10.66 8.33 11.32 8.66 12 9 C12 10.32 12 11.64 12 13 C11.01 13.495 11.01 13.495 10 14 C9.34444881 16.52733235 9.34444881 16.52733235 9 19 C7.35 18.67 5.7 18.34 4 18 C4 14.66666667 4 11.33333333 4 8 C2.35 8.33 0.7 8.66 -1 9 C-0.72965366 11.43717258 -0.72965366 11.43717258 0 14 C0.99 14.66 1.98 15.32 3 16 C-1.875 15.125 -1.875 15.125 -3 14 C-3.66 14.66 -4.32 15.32 -5 16 C-5.33 15.34 -5.66 14.68 -6 14 C-6.99 13.67 -7.98 13.34 -9 13 C-9 11.68 -9 10.36 -9 9 C-8.34 8.67 -7.68 8.34 -7 8 C-6.835 7.175 -6.67 6.35 -6.5 5.5 C-6.335 4.675 -6.17 3.85 -6 3 C-5.34 2.67 -4.68 2.34 -4 2 C-3.01 2.33 -2.02 2.66 -1 3 C-0.67 2.01 -0.34 1.02 0 0 Z " fill="#EFF3F2" transform="translate(25,5)"/>
<path d="M0 0 C2.625 0.375 2.625 0.375 5 1 C5 4 5 7 5 10 C5.66 10.66 6.32 11.32 7 12 C6.01 12 5.02 12 4 12 C3.67 12.99 3.34 13.98 3 15 C1.68 14.67 0.36 14.34 -1 14 C-1 13.01 -1 12.02 -1 11 C-2.98 11.99 -2.98 11.99 -5 13 C-5.66 11.68 -6.32 10.36 -7 9 C-6.01 8.01 -5.02 7.02 -4 6 C-3.01 6.33 -2.02 6.66 -1 7 C-1.309375 5.824375 -1.309375 5.824375 -1.625 4.625 C-1.74875 3.75875 -1.8725 2.8925 -2 2 C-1.34 1.34 -0.68 0.68 0 0 Z " fill="#D8DBD9" transform="translate(25,12)"/>
<path d="M0 0 C2.16874252 0.50603992 3.99967627 0.99983813 6 2 C5.67 4.64 5.34 7.28 5 10 C4.01 10.33 3.02 10.66 2 11 C1.01 10.34 0.02 9.68 -1 9 C-1 5.88772805 -0.54372951 3.05847848 0 0 Z " fill="#E7E9E9" transform="translate(30,13)"/>
<path d="M0 0 C1.67542976 0.28604898 3.34385343 0.61781233 5 1 C5 2.98 5 4.96 5 7 C2.625 7.625 2.625 7.625 0 8 C-0.66 7.34 -1.32 6.68 -2 6 C-1.44444444 1.44444444 -1.44444444 1.44444444 0 0 Z " fill="#418876" transform="translate(25,12)"/>
<path d="M0 0 C0.99 0.66 1.98 1.32 3 2 C3 2.66 3 3.32 3 4 C2.34 4 1.68 4 1 4 C0.67 4.99 0.34 5.98 0 7 C-0.99 6.34 -1.98 5.68 -3 5 C-1.125 1.125 -1.125 1.125 0 0 Z " fill="#E0E2E2" transform="translate(21,18)"/>
</svg>
