<?xml version="1.0" encoding="UTF-8"?>
<svg version="1.1" xmlns="http://www.w3.org/2000/svg" width="52" height="32">
<path d="M0 0 C16.5 0 33 0 50 0 C50 9.9 50 19.8 50 30 C43.68172215 30.11487778 37.36707471 30.21439026 31.04858398 30.2746582 C28.90002151 30.29978285 26.75154435 30.33388861 24.60327148 30.37719727 C21.51264388 30.43793792 18.42314737 30.46623044 15.33203125 30.48828125 C14.37351761 30.51408768 13.41500397 30.5398941 12.42744446 30.56648254 C11.07661018 30.56704903 11.07661018 30.56704903 9.69848633 30.56762695 C8.91016922 30.57873001 8.12185211 30.58983307 7.30964661 30.60127258 C5 30 5 30 0 25 C0 16.75 0 8.5 0 0 Z " fill="#B6463E" transform="translate(1,1)"/>
<path d="M0 0 C3.96 0 7.92 0 12 0 C12.33 0.66 12.66 1.32 13 2 C12.01 2 11.02 2 10 2 C10 4.64 10 7.28 10 10 C10.99 10 11.98 10 13 10 C12.67 11.32 12.34 12.64 12 14 C11.34 14 10.68 14 10 14 C10 15.65 10 17.3 10 19 C13.3 19 16.6 19 20 19 C20.33 19.66 20.66 20.32 21 21 C21.99 21.2165625 21.99 21.2165625 23 21.4375 C23.66 21.623125 24.32 21.80875 25 22 C25.33 22.99 25.66 23.98 26 25 C29.3 25.66 32.6 26.32 36 27 C36 27.33 36 27.66 36 28 C31.83754893 28.1490685 27.67653732 28.25754261 23.51220703 28.32958984 C22.09786903 28.35964089 20.68371554 28.40049623 19.27001953 28.45263672 C6.02572566 28.92864728 6.02572566 28.92864728 2.0625 25.6875 C-1.26561975 21.25917537 -0.64038845 15.89874477 -0.375 10.625 C-0.34792969 9.60277344 -0.32085937 8.58054687 -0.29296875 7.52734375 C-0.22259414 5.01731583 -0.11498517 2.50838018 0 0 Z " fill="#B8473E" transform="translate(2,2)"/>
<path d="M0 0 C0.99 0 1.98 0 3 0 C3.66 2.97 4.32 5.94 5 9 C4.071875 8.938125 3.14375 8.87625 2.1875 8.8125 C-0.98080688 8.66853545 -0.98080688 8.66853545 -2.69921875 10.51171875 C-3.12847656 11.00285156 -3.55773437 11.49398438 -4 12 C-3.6390625 12.53109375 -3.278125 13.0621875 -2.90625 13.609375 C-2.21015625 14.66898438 -2.21015625 14.66898438 -1.5 15.75 C-1.0359375 16.44609375 -0.571875 17.1421875 -0.09375 17.859375 C1 20 1 20 1 24 C-0.48206495 23.745504 -1.96068615 23.47088238 -3.4375 23.1875 C-4.26121094 23.03667969 -5.08492187 22.88585937 -5.93359375 22.73046875 C-6.61550781 22.48941406 -7.29742187 22.24835937 -8 22 C-8.33 21.01 -8.66 20.02 -9 19 C-9.99 19 -10.98 19 -12 19 C-12 18.01 -12 17.02 -12 16 C-15.63 16 -19.26 16 -23 16 C-22 14 -21 12 -20 10 C-20 8.68 -20 7.36 -20 6 C-20.99 5.67 -21.98 5.34 -23 5 C-23 3.68 -23 2.36 -23 1 C-18.90340898 1.32772728 -16.42607639 1.70707248 -13 4.0625 C-9.39396433 6.39139804 -7.21035669 6.33682854 -3 6 C-3 5.01 -3 4.02 -3 3 C-2.34 3 -1.68 3 -1 3 C-0.67 2.01 -0.34 1.02 0 0 Z " fill="#E6E5E5" transform="translate(36,4)"/>
<path d="M0 0 C0.97259766 -0.00257812 1.94519531 -0.00515625 2.94726562 -0.0078125 C3.96626953 -0.00007812 4.98527344 0.00765625 6.03515625 0.015625 C7.05029297 0.00789062 8.06542969 0.00015625 9.11132812 -0.0078125 C10.08521484 -0.00523438 11.05910156 -0.00265625 12.0625 0 C12.95573975 0.00225586 13.84897949 0.00451172 14.76928711 0.00683594 C17.09765625 0.265625 17.09765625 0.265625 20.09765625 2.265625 C19.10765625 2.595625 18.11765625 2.925625 17.09765625 3.265625 C16.76765625 3.925625 16.43765625 4.585625 16.09765625 5.265625 C15.43765625 5.265625 14.77765625 5.265625 14.09765625 5.265625 C14.09765625 6.255625 14.09765625 7.245625 14.09765625 8.265625 C9.86938869 9.28040921 7.90244111 9.75184919 4.09765625 7.453125 C3.10765625 6.73125 2.11765625 6.009375 1.09765625 5.265625 C-1.22042941 4.40690096 -3.49192882 3.84412458 -5.90234375 3.265625 C-5.55447667 5.24099245 -5.55447667 5.24099245 -4.90234375 7.265625 C-4.24234375 7.595625 -3.58234375 7.925625 -2.90234375 8.265625 C-2.02734375 10.515625 -2.02734375 10.515625 -1.90234375 13.265625 C-3.83984375 16.078125 -3.83984375 16.078125 -5.90234375 18.265625 C-2.27234375 18.265625 1.35765625 18.265625 5.09765625 18.265625 C5.42765625 18.925625 5.75765625 19.585625 6.09765625 20.265625 C7.08765625 20.595625 8.07765625 20.925625 9.09765625 21.265625 C9.09765625 22.255625 9.09765625 23.245625 9.09765625 24.265625 C10.02578125 24.41 10.95390625 24.554375 11.91015625 24.703125 C15.09765625 25.265625 15.09765625 25.265625 18.09765625 26.265625 C17.60265625 23.790625 17.60265625 23.790625 17.09765625 21.265625 C17.75765625 21.265625 18.41765625 21.265625 19.09765625 21.265625 C19.09765625 23.245625 19.09765625 25.225625 19.09765625 27.265625 C15.79765625 26.935625 12.49765625 26.605625 9.09765625 26.265625 C8.76765625 24.945625 8.43765625 23.625625 8.09765625 22.265625 C6.44765625 21.935625 4.79765625 21.605625 3.09765625 21.265625 C3.09765625 20.605625 3.09765625 19.945625 3.09765625 19.265625 C-0.20234375 19.265625 -3.50234375 19.265625 -6.90234375 19.265625 C-6.90234375 17.615625 -6.90234375 15.965625 -6.90234375 14.265625 C-6.24234375 13.935625 -5.58234375 13.605625 -4.90234375 13.265625 C-4.57234375 12.275625 -4.24234375 11.285625 -3.90234375 10.265625 C-4.89234375 10.265625 -5.88234375 10.265625 -6.90234375 10.265625 C-7.09765625 4.2109375 -7.09765625 4.2109375 -6.90234375 2.265625 C-4.3779468 -0.25877195 -3.49177556 0.00882956 0 0 Z " fill="#99504B" transform="translate(18.90234375,1.734375)"/>
<path d="M0 0 C16.5 0 33 0 50 0 C50 9.9 50 19.8 50 30 C43.68172215 30.11487778 37.36707471 30.21439026 31.04858398 30.2746582 C28.90002151 30.29978285 26.75154435 30.33388861 24.60327148 30.37719727 C21.51264388 30.43793792 18.42314737 30.46623044 15.33203125 30.48828125 C14.37351761 30.51408768 13.41500397 30.5398941 12.42744446 30.56648254 C11.07661018 30.56704903 11.07661018 30.56704903 9.69848633 30.56762695 C8.91016922 30.57873001 8.12185211 30.58983307 7.30964661 30.60127258 C5 30 5 30 0 25 C0 16.75 0 8.5 0 0 Z M1 1 C1 8.26 1 15.52 1 23 C5.93567572 28.865241 5.93567572 28.865241 9.31600952 29.7215271 C10.04881134 29.70820343 10.78161316 29.69487976 11.53662109 29.68115234 C12.37703949 29.68069916 13.21745789 29.68024597 14.08334351 29.67977905 C14.97107452 29.64881134 15.85880554 29.61784363 16.7734375 29.5859375 C17.6971817 29.57744781 18.6209259 29.56895813 19.57266235 29.56021118 C22.50798764 29.5267631 25.44051261 29.45150164 28.375 29.375 C30.37105393 29.34488921 32.36715114 29.31751536 34.36328125 29.29296875 C39.24412024 29.23211041 44.11894634 29.11469839 49 29 C49 19.76 49 10.52 49 1 C33.16 1 17.32 1 1 1 Z " fill="#F96358" transform="translate(1,1)"/>
<path d="M0 0 C0.99 0 1.98 0 3 0 C3.66 2.97 4.32 5.94 5 9 C3.63875 8.9690625 3.63875 8.9690625 2.25 8.9375 C-0.82363516 8.84019991 -0.82363516 8.84019991 -2.9375 9.625 C-6.20549141 10.21918026 -8.9012283 9.01305998 -12 8 C-10 6 -10 6 -6.375 5.875 C-4.704375 5.936875 -4.704375 5.936875 -3 6 C-3 5.01 -3 4.02 -3 3 C-2.34 3 -1.68 3 -1 3 C-0.67 2.01 -0.34 1.02 0 0 Z " fill="#F7F3F3" transform="translate(36,4)"/>
<path d="M0 0 C0.33 1.32 0.66 2.64 1 4 C2.32 4 3.64 4 5 4 C5 5.98 5 7.96 5 10 C2.36 10 -0.28 10 -3 10 C-3 11.65 -3 13.3 -3 15 C-3.99 15 -4.98 15 -6 15 C-6.66 13.68 -7.32 12.36 -8 11 C-6.375 9.4375 -6.375 9.4375 -4 8 C-0.75 8.3125 -0.75 8.3125 2 9 C1.67 8.443125 1.34 7.88625 1 7.3125 C-0.1309601 4.69715478 -0.15662974 2.8193354 0 0 Z " fill="#895353" transform="translate(39,4)"/>
<path d="M0 0 C3.75877718 1.68496908 3.75877718 1.68496908 5.1809082 3.54223633 C7.95024868 5.76149978 10.88837979 5.47993527 14.29296875 5.51171875 C14.99899734 5.52966995 15.70502594 5.54762115 16.43244934 5.56611633 C18.68407241 5.62023178 20.93548343 5.65411722 23.1875 5.6875 C24.71552431 5.72067219 26.24352063 5.75516177 27.77148438 5.79101562 C31.51416989 5.87595825 35.25679241 5.94276248 39 6 C39 6.33 39 6.66 39 7 C34.24952648 7.12391876 29.50000039 7.21448561 24.74829102 7.2746582 C23.13321539 7.29974959 21.51825274 7.33383126 19.90356445 7.37719727 C17.57735294 7.43809286 15.25264641 7.46626124 12.92578125 7.48828125 C11.84892815 7.52699089 11.84892815 7.52699089 10.75032043 7.56648254 C6.77132009 7.56869132 5.14921346 7.11983048 2.00463867 4.59448242 C0 2 0 2 0 0 Z " fill="#F76256" transform="translate(1,24)"/>
<path d="M0 0 C2.31 0.33 4.62 0.66 7 1 C7.33 1.99 7.66 2.98 8 4 C7.01 4.33 6.02 4.66 5 5 C5 5.99 5 6.98 5 8 C2.5 6.25 2.5 6.25 0 4 C0 2.68 0 1.36 0 0 Z " fill="#F4F4F4" transform="translate(13,5)"/>
<path d="M0 0 C0.99 0.33 1.98 0.66 3 1 C6.84283684 1.13973952 10.3171369 1.17851619 14 0 C13.01 0.495 13.01 0.495 12 1 C12 1.99 12 2.98 12 4 C8.8125 4.8125 8.8125 4.8125 5 5 C2.0625 2.5625 2.0625 2.5625 0 0 Z " fill="#805252" transform="translate(21,6)"/>
<path d="M0 0 C0.33 1.32 0.66 2.64 1 4 C2.32 4 3.64 4 5 4 C5 5.98 5 7.96 5 10 C2 9 2 9 0.8125 7.25 C-0.10819096 4.70039426 -0.14948718 2.69076919 0 0 Z " fill="#A06B67" transform="translate(39,4)"/>
<path d="M0 0 C2.86697492 1.28519565 4.97607712 2.57129254 7 5 C7 5.66 7 6.32 7 7 C4.13302508 5.71480435 2.02392288 4.42870746 0 2 C0 1.34 0 0.68 0 0 Z " fill="#EC5140" transform="translate(1,24)"/>
</svg>
