<?xml version="1.0" encoding="UTF-8"?>
<svg version="1.1" xmlns="http://www.w3.org/2000/svg" width="52" height="32">
<path d="M0 0 C16.5 0 33 0 50 0 C50 9.9 50 19.8 50 30 C43.68172215 30.11487778 37.36707471 30.21439026 31.04858398 30.2746582 C28.90002151 30.29978285 26.75154435 30.33388861 24.60327148 30.37719727 C21.51264388 30.43793792 18.42314737 30.46623044 15.33203125 30.48828125 C14.37351761 30.51408768 13.41500397 30.5398941 12.42744446 30.56648254 C11.07661018 30.56704903 11.07661018 30.56704903 9.69848633 30.56762695 C8.91016922 30.57873001 8.12185211 30.58983307 7.30964661 30.60127258 C5 30 5 30 0 25 C0 16.75 0 8.5 0 0 Z " fill="#B6473E" transform="translate(1,1)"/>
<path d="M0 0 C1.10214844 0.47566406 1.10214844 0.47566406 2.2265625 0.9609375 C7.58635701 2.43682294 12.83867692 2.46849617 18.375 2.625 C20.05142578 2.68300781 20.05142578 2.68300781 21.76171875 2.7421875 C24.50765161 2.83606555 27.25358476 2.92174911 30 3 C29.4140625 9.15234375 29.4140625 9.15234375 29 11 C28.34 11.33 27.68 11.66 27 12 C26.896875 12.639375 26.79375 13.27875 26.6875 13.9375 C26 16 26 16 23.890625 17.11328125 C20.49134214 18.15603424 17.61571278 18.26543198 14.0625 18.25 C12.87785156 18.25515625 11.69320313 18.2603125 10.47265625 18.265625 C6.99917717 17.99993706 4.23914532 17.24620553 1 16 C1 14.02 1 12.04 1 10 C1.66 10 2.32 10 3 10 C3.33 10.66 3.66 11.32 4 12 C4.66 12 5.32 12 6 12 C6 11.01 6 10.02 6 9 C4.989375 8.9175 3.97875 8.835 2.9375 8.75 C-1.37786916 8.15993932 -4.34738197 6.31083998 -8 4 C-8 3.01 -8 2.02 -8 1 C-5.69 1.66 -3.38 2.32 -1 3 C-0.67 2.01 -0.34 1.02 0 0 Z " fill="#E6E6E6" transform="translate(15,7)"/>
<path d="M0 0 C16.5 0 33 0 50 0 C50 9.9 50 19.8 50 30 C43.68172215 30.11487778 37.36707471 30.21439026 31.04858398 30.2746582 C28.90002151 30.29978285 26.75154435 30.33388861 24.60327148 30.37719727 C21.51264388 30.43793792 18.42314737 30.46623044 15.33203125 30.48828125 C14.37351761 30.51408768 13.41500397 30.5398941 12.42744446 30.56648254 C11.07661018 30.56704903 11.07661018 30.56704903 9.69848633 30.56762695 C8.91016922 30.57873001 8.12185211 30.58983307 7.30964661 30.60127258 C5 30 5 30 0 25 C0 16.75 0 8.5 0 0 Z M1 1 C1 8.26 1 15.52 1 23 C5.93567572 28.865241 5.93567572 28.865241 9.31600952 29.7215271 C10.04881134 29.70820343 10.78161316 29.69487976 11.53662109 29.68115234 C12.37703949 29.68069916 13.21745789 29.68024597 14.08334351 29.67977905 C14.97107452 29.64881134 15.85880554 29.61784363 16.7734375 29.5859375 C17.6971817 29.57744781 18.6209259 29.56895813 19.57266235 29.56021118 C22.50798764 29.5267631 25.44051261 29.45150164 28.375 29.375 C30.37105393 29.34488921 32.36715114 29.31751536 34.36328125 29.29296875 C39.24412024 29.23211041 44.11894634 29.11469839 49 29 C49 19.76 49 10.52 49 1 C33.16 1 17.32 1 1 1 Z " fill="#F96358" transform="translate(1,1)"/>
<path d="M0 0 C1.32 0 2.64 0 4 0 C4 0.66 4 1.32 4 2 C7.24078125 2.94466756 10.27225655 3.19098828 13.640625 3.31640625 C14.71054687 3.35830078 15.78046875 3.40019531 16.8828125 3.44335938 C17.99398438 3.48267578 19.10515625 3.52199219 20.25 3.5625 C21.93996094 3.62727539 21.93996094 3.62727539 23.6640625 3.69335938 C26.44258954 3.79932015 29.22120391 3.90139142 32 4 C32.495 4.99 32.495 4.99 33 6 C29.12506384 6.05834395 25.25024164 6.09371201 21.375 6.125 C20.28058594 6.14175781 19.18617187 6.15851562 18.05859375 6.17578125 C8.01920021 6.23662606 8.01920021 6.23662606 3 4 C2.67 4.66 2.34 5.32 2 6 C-2.75 5.125 -2.75 5.125 -5 4 C-5 4.99 -5 5.98 -5 7 C-2.525 7.99 -2.525 7.99 0 9 C-1.32 9.33 -2.64 9.66 -4 10 C-4 9.34 -4 8.68 -4 8 C-5.32 8 -6.64 8 -8 8 C-8 6.68 -8 5.36 -8 4 C-2.25 2.875 -2.25 2.875 0 4 C0 2.68 0 1.36 0 0 Z " fill="#7A4846" transform="translate(12,4)"/>
<path d="M0 0 C0.495 1.98 0.495 1.98 1 4 C0.67 4 0.34 4 0 4 C-0.268125 5.134375 -0.53625 6.26875 -0.8125 7.4375 C-1.204375 8.613125 -1.59625 9.78875 -2 11 C-2.99 11.33 -3.98 11.66 -5 12 C-5 13.32 -5 14.64 -5 16 C-7.91824244 17.66674321 -9.97594379 18.2432008 -13.328125 18.1953125 C-14.12734375 18.18886719 -14.9265625 18.18242187 -15.75 18.17578125 C-16.575 18.15902344 -17.4 18.14226563 -18.25 18.125 C-19.09046875 18.11597656 -19.9309375 18.10695313 -20.796875 18.09765625 C-22.86470604 18.07415817 -24.93238995 18.03828908 -27 18 C-27 17.34 -27 16.68 -27 16 C-28.65 16 -30.3 16 -32 16 C-32 13.36 -32 10.72 -32 8 C-32.99 8 -33.98 8 -35 8 C-35 7.34 -35 6.68 -35 6 C-30.545 6.99 -30.545 6.99 -26 8 C-25.67 7.34 -25.34 6.68 -25 6 C-25 7.65 -25 9.3 -25 11 C-26.32 11 -27.64 11 -29 11 C-29 10.34 -29 9.68 -29 9 C-29.66 9 -30.32 9 -31 9 C-31 10.98 -31 12.96 -31 15 C-30.195625 14.979375 -29.39125 14.95875 -28.5625 14.9375 C-26 15 -26 15 -25 16 C-22.75183935 16.10004903 -20.50038093 16.12966884 -18.25 16.125 C-17.01765625 16.12757812 -15.7853125 16.13015625 -14.515625 16.1328125 C-11.53083273 16.02005368 -8.89401738 15.69588968 -6 15 C-5.67 13.35 -5.34 11.7 -5 10 C-4.34 10 -3.68 10 -3 10 C-2.814375 8.081875 -2.814375 8.081875 -2.625 6.125 C-2.25 2.25 -2.25 2.25 0 0 Z " fill="#6E5957" transform="translate(47,8)"/>
<path d="M0 0 C8.21107745 1.05363383 14.77276143 4.05109645 22 8 C22 7.01 22 6.02 22 5 C22.99 5 23.98 5 25 5 C24.34 6.98 23.68 8.96 23 11 C22.01 11 21.02 11 20 11 C19.67 10.34 19.34 9.68 19 9 C18.01 8.67 17.02 8.34 16 8 C15.67 8.66 15.34 9.32 15 10 C14.67 9.34 14.34 8.68 14 8 C12.453125 7.814375 12.453125 7.814375 10.875 7.625 C6.32421671 6.8910027 3.85797763 5.44076136 0 3 C0 2.01 0 1.02 0 0 Z " fill="#8F8F8F" transform="translate(7,8)"/>
<path d="M0 0 C0 1.32 0 2.64 0 4 C-4.0925581 5.94957399 -7.42398473 6.26960267 -11.9375 6.25 C-13.12214844 6.25515625 -14.30679687 6.2603125 -15.52734375 6.265625 C-19.00082283 5.99993706 -21.76085468 5.24620553 -25 4 C-25 3.67 -25 3.34 -25 3 C-24.16807129 2.970271 -24.16807129 2.970271 -23.31933594 2.93994141 C-20.79576307 2.84442349 -18.27298776 2.73485433 -15.75 2.625 C-14.87730469 2.5940625 -14.00460938 2.563125 -13.10546875 2.53125 C-12.26113281 2.49257813 -11.41679687 2.45390625 -10.546875 2.4140625 C-9.77182617 2.3826416 -8.99677734 2.3512207 -8.19824219 2.31884766 C-5.17664349 1.8805749 -3.02361928 0 0 0 Z " fill="#C3C1C1" transform="translate(41,19)"/>
<path d="M0 0 C2.18268041 0.97844294 3.77676894 1.7507959 5.38594055 3.54719543 C7.38937775 5.35047641 8.35072004 5.39038991 11.01245117 5.43237305 C11.81305466 5.45216721 12.61365814 5.47196136 13.43852234 5.49235535 C14.72772331 5.50194023 14.72772331 5.50194023 16.04296875 5.51171875 C16.9265657 5.52966995 17.81016266 5.54762115 18.72053528 5.56611633 C21.5428083 5.62029996 24.36491144 5.65414061 27.1875 5.6875 C29.10093514 5.72066599 31.01434784 5.75515498 32.92773438 5.79101562 C37.61836715 5.87603099 42.30894884 5.94280362 47 6 C47 6.33 47 6.66 47 7 C41.11018515 7.12375961 35.22112988 7.21441514 29.33032227 7.2746582 C27.32725844 7.2997755 25.32428602 7.33387595 23.3215332 7.37719727 C20.43938634 7.43797188 17.55845279 7.46623732 14.67578125 7.48828125 C13.33644279 7.52699089 13.33644279 7.52699089 11.970047 7.56648254 C7.43141321 7.56852187 5.59680705 7.46239992 1.89526367 4.59448242 C0 2 0 2 0 0 Z " fill="#F76258" transform="translate(1,24)"/>
<path d="M0 0 C5.875 1.875 5.875 1.875 7 3 C9.85877909 3.23701239 12.69883297 3.42219182 15.5625 3.5625 C16.36880859 3.60568359 17.17511719 3.64886719 18.00585938 3.69335938 C20.00368805 3.79975262 22.0018207 3.90040888 24 4 C24 4.33 24 4.66 24 5 C17.565 5.495 17.565 5.495 11 6 C11.66 6.66 12.32 7.32 13 8 C8.14036821 7.39254603 4.2594482 5.27241033 0 3 C0 2.01 0 1.02 0 0 Z " fill="#FBFBFB" transform="translate(15,7)"/>
<path d="M0 0 C4.8274799 1.41292095 8.7162359 3.42974154 13 6 C13 6.66 13 7.32 13 8 C7.71862571 7.48474397 4.42778844 5.74522883 0 3 C0 2.01 0 1.02 0 0 Z " fill="#EFEDED" transform="translate(7,8)"/>
<path d="M0 0 C1.32 0.33 2.64 0.66 4 1 C2 3 2 3 0 4 C2.31 4 4.62 4 7 4 C6.67 4.66 6.34 5.32 6 6 C1.71 6 -2.58 6 -7 6 C-7 4.35 -7 2.7 -7 1 C-6.34 1 -5.68 1 -5 1 C-4.67 1.66 -4.34 2.32 -4 3 C-3.01 2.67 -2.02 2.34 -1 2 C-0.67 1.34 -0.34 0.68 0 0 Z " fill="#EEEEEE" transform="translate(23,16)"/>
<path d="M0 0 C7.59 0 15.18 0 23 0 C22.67 1.32 22.34 2.64 22 4 C19.525 3.505 19.525 3.505 17 3 C17 2.34 17 1.68 17 1 C11.39 1 5.78 1 0 1 C0 0.67 0 0.34 0 0 Z " fill="#D1CECE" transform="translate(22,10)"/>
<path d="M0 0 C4.455 0.99 4.455 0.99 9 2 C9.33 1.34 9.66 0.68 10 0 C10 1.65 10 3.3 10 5 C8.68 5 7.36 5 6 5 C6 4.34 6 3.68 6 3 C5.34 3 4.68 3 4 3 C4 4.98 4 6.96 4 9 C3.67 9 3.34 9 3 9 C3 6.69 3 4.38 3 2 C2.01 2 1.02 2 0 2 C0 1.34 0 0.68 0 0 Z " fill="#695F5F" transform="translate(12,14)"/>
<path d="M0 0 C1.32 0 2.64 0 4 0 C4 0.66 4 1.32 4 2 C5.32 2.33 6.64 2.66 8 3 C8 3.66 8 4.32 8 5 C5.36 4.67 2.72 4.34 0 4 C0 2.68 0 1.36 0 0 Z " fill="#935454" transform="translate(12,4)"/>
<path d="M0 0 C2.86697492 1.28519565 4.97607712 2.57129254 7 5 C7 5.66 7 6.32 7 7 C4.13302508 5.71480435 2.02392288 4.42870746 0 2 C0 1.34 0 0.68 0 0 Z " fill="#EC5140" transform="translate(1,24)"/>
<path d="M0 0 C1.98 0.66 3.96 1.32 6 2 C6 2.99 6 3.98 6 5 C2.73045798 4.43628586 1.17424117 3.50037734 -1 1 C-0.67 0.67 -0.34 0.34 0 0 Z " fill="#F6EBEB" transform="translate(15,7)"/>
<path d="M0 0 C0.99 0 1.98 0 3 0 C2.34 1.98 1.68 3.96 1 6 C0.01 6 -0.98 6 -2 6 C-2 5.01 -2 4.02 -2 3 C-1.34 3 -0.68 3 0 3 C0 2.01 0 1.02 0 0 Z " fill="#434343" transform="translate(29,13)"/>
</svg>
