<?xml version="1.0" encoding="UTF-8"?>
<svg version="1.1" xmlns="http://www.w3.org/2000/svg" width="52" height="32">
<path d="M0 0 C17.16 0 34.32 0 52 0 C52 10.56 52 21.12 52 32 C34.84 32 17.68 32 0 32 C0 21.44 0 10.88 0 0 Z " fill="#A07732" transform="translate(0,0)"/>
<path d="M0 0 C16.5 0 33 0 50 0 C50 9.9 50 19.8 50 30 C43.82411073 30.11488839 37.65193723 30.21439644 31.47583008 30.2746582 C29.3757673 30.29978051 27.27579177 30.33388458 25.17602539 30.37719727 C22.1548916 30.43794871 19.13491504 30.46623263 16.11328125 30.48828125 C15.17664139 30.51408768 14.24000153 30.5398941 13.27497864 30.56648254 C5.99210366 30.56960611 5.99210366 30.56960611 2.86791992 27.46948242 C2.25150635 26.65455322 1.63509277 25.83962402 1 25 C1.33 24.34 1.66 23.68 2 23 C2.53302734 23.65049316 3.06605469 24.30098633 3.61523438 24.97119141 C6.65521976 27.55741976 8.20890851 27.4908416 12.15625 27.4609375 C13.34347656 27.45707031 14.53070313 27.45320313 15.75390625 27.44921875 C17.60822266 27.41248047 17.60822266 27.41248047 19.5 27.375 C20.73621094 27.37371094 21.97242188 27.37242188 23.24609375 27.37109375 C30.43421359 27.50267645 30.43421359 27.50267645 37 25 C37 24.34 37 23.68 37 23 C38.32 23 39.64 23 41 23 C41 21.35 41 19.7 41 18 C41.66 17.67 42.32 17.34 43 17 C43.46523063 15.10466658 43.46523063 15.10466658 43.625 12.9375 C43.810625 10.9884375 43.810625 10.9884375 44 9 C41.57948516 7.78974258 40.18679715 7.94190099 37.4921875 8.04296875 C36.58726563 8.06423828 35.68234375 8.08550781 34.75 8.10742188 C32.85638616 8.1601652 30.96306384 8.22496813 29.0703125 8.30273438 C22.55590953 8.42694969 18.60233326 7.35480897 13 4 C13 3.34 13 2.68 13 2 C9.04 1.67 5.08 1.34 1 1 C1 7.6 1 14.2 1 21 C0.67 21 0.34 21 0 21 C0 14.07 0 7.14 0 0 Z " fill="#C09438" transform="translate(1,1)"/>
<path d="M0 0 C4.75 0.875 4.75 0.875 7 2 C8.73868744 2.15266612 10.48247501 2.24932596 12.2265625 2.31640625 C13.2578125 2.35830078 14.2890625 2.40019531 15.3515625 2.44335938 C16.43179687 2.48267578 17.51203125 2.52199219 18.625 2.5625 C20.25695313 2.62727539 20.25695313 2.62727539 21.921875 2.69335938 C24.6144517 2.7996453 27.30712253 2.90168057 30 3 C29.51171875 9.0546875 29.51171875 9.0546875 29 11 C28.01 11.66 27.02 12.32 26 13 C25.31731862 14.32520503 24.6492959 15.65812182 24 17 C18.56292873 19.71853563 9.3761329 18.67197884 3.625 17 C2.75875 16.67 1.8925 16.34 1 16 C1.33 13.36 1.66 10.72 2 8 C0.6078125 7.566875 0.6078125 7.566875 -0.8125 7.125 C-4 6 -4 6 -7 4 C-7 3.01 -7 2.02 -7 1 C-1.82069003 2.24303439 1.70166639 3.85487785 6 7 C5.67 8.32 5.34 9.64 5 11 C5.66 11.33 6.32 11.66 7 12 C7.33 10.68 7.66 9.36 8 8 C9.9375 8.3125 9.9375 8.3125 12 9 C12.33 9.99 12.66 10.98 13 12 C13.66 12 14.32 12 15 12 C15.66 9.69 16.32 7.38 17 5 C14.66924071 5.95865509 14.66924071 5.95865509 13 9 C8.71 6.69 4.42 4.38 0 2 C0 1.34 0 0.68 0 0 Z " fill="#E5E5E4" transform="translate(14,7)"/>
<path d="M0 0 C17.16 0 34.32 0 52 0 C52 10.56 52 21.12 52 32 C34.84 32 17.68 32 0 32 C0 21.44 0 10.88 0 0 Z M1 1 C1 8.92 1 16.84 1 25 C5.94048376 30.88601841 5.94048376 30.88601841 9.39193726 31.7215271 C10.54443466 31.7015416 10.54443466 31.7015416 11.72021484 31.68115234 C12.60067474 31.68069916 13.48113464 31.68024597 14.38827515 31.67977905 C15.31975372 31.64881134 16.2512323 31.61784363 17.2109375 31.5859375 C18.17907379 31.57744781 19.14721008 31.56895813 20.14468384 31.56021118 C23.22261048 31.52674972 26.29787168 31.45148326 29.375 31.375 C31.46740995 31.34489105 33.55986117 31.31751688 35.65234375 31.29296875 C40.77007014 31.23209175 45.88206929 31.11467563 51 31 C51 21.1 51 11.2 51 1 C34.5 1 18 1 1 1 Z " fill="#020200" transform="translate(0,0)"/>
<path d="M0 0 C5.17930997 1.24303439 8.70166639 2.85487785 13 6 C12.67 7.32 12.34 8.64 12 10 C12.66 10.33 13.32 10.66 14 11 C14.33 9.68 14.66 8.36 15 7 C16.9375 7.3125 16.9375 7.3125 19 8 C19.33 8.99 19.66 9.98 20 11 C20.99 11 21.98 11 23 11 C23 11.66 23 12.32 23 13 C26.12290635 12.51421457 28.99580359 12.0013988 32 11 C32 12.32 32 13.64 32 15 C26.6057607 18.59615954 18.77901331 17.6914283 12.5234375 16.546875 C10.625 16 10.625 16 8 15 C8.33 12.36 8.66 9.72 9 7 C7.6078125 6.566875 7.6078125 6.566875 6.1875 6.125 C3 5 3 5 0 3 C0 2.01 0 1.02 0 0 Z " fill="#E6E6E6" transform="translate(7,8)"/>
<path d="M0 0 C2.55994537 0.43884778 4.74151406 0.87051364 7.07421875 2.0390625 C11.27703779 3.41942763 15.23735449 3.13295895 19.625 3 C21.32526474 2.948941 23.02583021 2.90688873 24.7265625 2.875 C25.84925537 2.84019531 25.84925537 2.84019531 26.99462891 2.8046875 C29 3 29 3 32 5 C31.67 7.64 31.34 10.28 31 13 C30.01 13.33 29.02 13.66 28 14 C28 15.65 28 17.3 28 19 C26.68 18.67 25.36 18.34 24 18 C24.66 16.35 25.32 14.7 26 13 C26.99 13 27.98 13 29 13 C29.33 10.36 29.66 7.72 30 5 C29.33991943 5.01571045 28.67983887 5.0314209 27.99975586 5.04760742 C24.97909273 5.11036688 21.9585673 5.14911983 18.9375 5.1875 C17.37999023 5.22520508 17.37999023 5.22520508 15.79101562 5.26367188 C9.70840838 5.32160147 5.37885697 4.90687164 0 2 C2.40689803 4.72675159 4.92471023 6.11966596 8.1875 7.6875 C9.08855469 8.12449219 9.98960938 8.56148437 10.91796875 9.01171875 C11.60503906 9.33785156 12.29210937 9.66398438 13 10 C13.66 9.01 14.32 8.02 15 7 C15.66 7 16.32 7 17 7 C16.67 9.31 16.34 11.62 16 14 C14.68 14 13.36 14 12 14 C12 13.01 12 12.02 12 11 C10.68 10.67 9.36 10.34 8 10 C7.67 11.32 7.34 12.64 7 14 C6.01 13.67 5.02 13.34 4 13 C4.33 11.68 4.66 10.36 5 9 C3.82630859 8.38511719 3.82630859 8.38511719 2.62890625 7.7578125 C1.61699219 7.21898437 0.60507813 6.68015625 -0.4375 6.125 C-1.44683594 5.59132813 -2.45617187 5.05765625 -3.49609375 4.5078125 C-6 3 -6 3 -7 1 C-5.02 1.66 -3.04 2.32 -1 3 C-0.67 2.01 -0.34 1.02 0 0 Z " fill="#685F4E" transform="translate(14,5)"/>
<path d="M0 0 C0.33 0.99 0.66 1.98 1 3 C3.8966148 2.88569952 6.79178316 2.7589576 9.6875 2.625 C10.50412109 2.5940625 11.32074219 2.563125 12.16210938 2.53125 C16.50126633 2.32044076 20.04283457 1.98261241 24 0 C24 1.32 24 2.64 24 4 C18.6057607 7.59615954 10.77901331 6.6914283 4.5234375 5.546875 C2.625 5 2.625 5 0 4 C0 2.68 0 1.36 0 0 Z " fill="#A9A7A5" transform="translate(15,19)"/>
<path d="M0 0 C4.75 0.875 4.75 0.875 7 2 C8.87056791 2.2275015 10.74685958 2.40962811 12.625 2.5625 C13.62789062 2.64628906 14.63078125 2.73007813 15.6640625 2.81640625 C16.43492188 2.87699219 17.20578125 2.93757812 18 3 C18.33 4.32 18.66 5.64 19 7 C17.68 6.67 16.36 6.34 15 6 C14.01 7.485 14.01 7.485 13 9 C8.71 6.69 4.42 4.38 0 2 C0 1.34 0 0.68 0 0 Z " fill="#EEEEEE" transform="translate(14,7)"/>
<path d="M0 0 C0.33 0 0.66 0 1 0 C1.00410889 0.66531738 1.00821777 1.33063477 1.01245117 2.01611328 C1.0455042 5.05328977 1.11616034 8.08849137 1.1875 11.125 C1.19330078 12.17171875 1.19910156 13.2184375 1.20507812 14.296875 C1.34002666 21.02943056 1.34002666 21.02943056 4.55078125 26.7421875 C5.35902344 27.48726562 6.16726562 28.23234375 7 29 C4.69 29.33 2.38 29.66 0 30 C0 20.1 0 10.2 0 0 Z " fill="#0E0800" transform="translate(0,2)"/>
<path d="M0 0 C6.6 0 13.2 0 20 0 C21.10191901 4.40767604 20.58706842 5.8922935 19 10 C18.34 10 17.68 10 17 10 C17 11.65 17 13.3 17 15 C15.68 14.67 14.36 14.34 13 14 C13.66 12.35 14.32 10.7 15 9 C15.99 9 16.98 9 18 9 C18.33 6.36 18.66 3.72 19 1 C12.73 1 6.46 1 0 1 C0 0.67 0 0.34 0 0 Z " fill="#77694B" transform="translate(25,9)"/>
<path d="M0 0 C5.08646583 1.2207518 8.79646933 2.71919558 13 6 C13 6.66 13 7.32 13 8 C7.71862571 7.48474397 4.42778844 5.74522883 0 3 C0 2.01 0 1.02 0 0 Z " fill="#EEEEEC" transform="translate(7,8)"/>
<path d="M0 0 C0.66 0 1.32 0 2 0 C1.67 2.31 1.34 4.62 1 7 C-0.32 7 -1.64 7 -3 7 C-3 6.01 -3 5.02 -3 4 C-4.32 3.67 -5.64 3.34 -7 3 C-6.67 2.34 -6.34 1.68 -6 1 C-4.68 1.66 -3.36 2.32 -2 3 C-1.34 2.01 -0.68 1.02 0 0 Z " fill="#737373" transform="translate(29,12)"/>
<path d="M0 0 C0.99 0.33 1.98 0.66 3 1 C0.51565563 3.34290892 -0.77731593 3.97982934 -4.234375 4.29296875 C-5.39453125 4.25816406 -6.5546875 4.22335938 -7.75 4.1875 C-8.92046875 4.16042969 -10.0909375 4.13335938 -11.296875 4.10546875 C-12.18890625 4.07066406 -13.0809375 4.03585938 -14 4 C-14 3.67 -14 3.34 -14 3 C-13.15695313 2.86722656 -12.31390625 2.73445313 -11.4453125 2.59765625 C-10.34960938 2.42105469 -9.25390625 2.24445312 -8.125 2.0625 C-6.48917969 1.80146484 -6.48917969 1.80146484 -4.8203125 1.53515625 C-2.06178454 1.14448841 -2.06178454 1.14448841 0 0 Z " fill="#E6E4E0" transform="translate(37,21)"/>
<path d="M0 0 C1.4540625 0.0309375 1.4540625 0.0309375 2.9375 0.0625 C3.2675 1.3825 3.5975 2.7025 3.9375 4.0625 C2.6175 3.7325 1.2975 3.4025 -0.0625 3.0625 C-1.0525 4.5475 -1.0525 4.5475 -2.0625 6.0625 C-2.7225 4.4125 -3.3825 2.7625 -4.0625 1.0625 C-3.0625 0.0625 -3.0625 0.0625 0 0 Z " fill="#F7F7F7" transform="translate(29.0625,9.9375)"/>
<path d="M0 0 C3 2 3 2 5 5 C4.34 5.66 3.68 6.32 3 7 C2.01 7 1.02 7 0 7 C0 4.69 0 2.38 0 0 Z " fill="#DCDCDC" transform="translate(16,15)"/>
</svg>
