<?xml version="1.0" encoding="UTF-8"?>
<svg version="1.1" xmlns="http://www.w3.org/2000/svg" width="52" height="32">
<path d="M0 0 C17.16 0 34.32 0 52 0 C52 10.56 52 21.12 52 32 C34.84 32 17.68 32 0 32 C0 21.44 0 10.88 0 0 Z " fill="#B68C34" transform="translate(0,0)"/>
<path d="M0 0 C15.84 0 31.68 0 48 0 C48 9.24 48 18.48 48 28 C34.14 28 20.28 28 6 28 C5.67 27.34 5.34 26.68 5 26 C10.61 26 16.22 26 22 26 C23.16517683 18.98561781 23.16517683 18.98561781 23 12 C20.45894503 8.77019912 17.50319393 7.05763807 14 5 C13.67 4.34 13.34 3.68 13 3 C9.95418731 2.53045739 9.95418731 2.53045739 6.4375 2.375 C5.23996094 2.30023438 4.04242188 2.22546875 2.80859375 2.1484375 C1.88175781 2.09945313 0.95492188 2.05046875 0 2 C0 1.34 0 0.68 0 0 Z " fill="#A67D34" transform="translate(2,2)"/>
<path d="M0 0 C3.36591866 1.44253657 5.51047079 3.33264727 8 6 C7.01 4.68 6.02 3.36 5 2 C6.77734375 1.30859375 6.77734375 1.30859375 9 1 C10.75390625 2.28515625 10.75390625 2.28515625 12.5625 4.0625 C15.26716569 6.28656347 16.41452913 7.00848509 19.96484375 6.95703125 C22.67219717 6.43786052 25.34199145 5.73095235 28 5 C28 11.27 28 17.54 28 24 C21.4 24 14.8 24 8 24 C8.350625 21.834375 8.70125 19.66875 9.0625 17.4375 C9.60035409 12.08424081 9.60035409 12.08424081 7.0625 7.6171875 C4.60782756 5.78150454 4.60782756 5.78150454 2.00390625 4.33203125 C1.34261719 3.89246094 0.68132813 3.45289063 0 3 C0 2.01 0 1.02 0 0 Z " fill="#E9E9E9" transform="translate(16,4)"/>
<path d="M0 0 C15.84 0 31.68 0 48 0 C48 9.24 48 18.48 48 28 C34.14 28 20.28 28 6 28 C5.67 27.34 5.34 26.68 5 26 C18.86 26.33 32.72 26.66 47 27 C47 18.75 47 10.5 47 2 C42.91625 2.144375 38.8325 2.28875 34.625 2.4375 C33.33803223 2.48060303 32.05106445 2.52370605 30.72509766 2.56811523 C29.20988525 2.6252771 29.20988525 2.6252771 27.6640625 2.68359375 C26.10872803 2.73858032 26.10872803 2.73858032 24.52197266 2.79467773 C22.00574834 2.84164223 22.00574834 2.84164223 20 4 C21.32 5.65 22.64 7.3 24 9 C19.26415094 7.46404895 19.26415094 7.46404895 17.84375 4.96875 C15.44395371 2.40625565 13.45815605 2.44723698 10.04882812 2.29296875 C9.31083984 2.27878906 8.57285156 2.26460938 7.8125 2.25 C7.06291016 2.22035156 6.31332031 2.19070313 5.54101562 2.16015625 C3.69458693 2.0895921 1.84728739 2.04251524 0 2 C0 1.34 0 0.68 0 0 Z " fill="#B08A26" transform="translate(2,2)"/>
<path d="M0 0 C17.16 0 34.32 0 52 0 C52 10.56 52 21.12 52 32 C34.84 32 17.68 32 0 32 C0 21.44 0 10.88 0 0 Z M1 1 C1 8.92 1 16.84 1 25 C5.94048376 30.88601841 5.94048376 30.88601841 9.39193726 31.7215271 C10.54443466 31.7015416 10.54443466 31.7015416 11.72021484 31.68115234 C12.60067474 31.68069916 13.48113464 31.68024597 14.38827515 31.67977905 C15.31975372 31.64881134 16.2512323 31.61784363 17.2109375 31.5859375 C18.17907379 31.57744781 19.14721008 31.56895813 20.14468384 31.56021118 C23.22261048 31.52674972 26.29787168 31.45148326 29.375 31.375 C31.46740995 31.34489105 33.55986117 31.31751688 35.65234375 31.29296875 C40.77007014 31.23209175 45.88206929 31.11467563 51 31 C51 21.1 51 11.2 51 1 C34.5 1 18 1 1 1 Z " fill="#000000" transform="translate(0,0)"/>
<path d="M0 0 C2.48620049 1.06551449 4.03717151 2.03837059 5.9375 4 C8.2053559 6.199133 10.05583052 6.94311865 13 8 C13.99 8.66 14.98 9.32 16 10 C15.67 13.3 15.34 16.6 15 20 C19.29 20 23.58 20 28 20 C28 21.32 28 22.64 28 24 C21.4 24 14.8 24 8 24 C8.350625 21.834375 8.70125 19.66875 9.0625 17.4375 C9.60035409 12.08424081 9.60035409 12.08424081 7.0625 7.6171875 C4.60782756 5.78150454 4.60782756 5.78150454 2.00390625 4.33203125 C1.34261719 3.89246094 0.68132813 3.45289063 0 3 C0 2.01 0 1.02 0 0 Z " fill="#979796" transform="translate(16,4)"/>
<path d="M0 0 C3.41538845 1.46373791 5.3913849 3.3913849 8 6 C10.29030995 7.73628249 12.63593896 9.36334236 15 11 C14.34 13.97 13.68 16.94 13 20 C11.68 20 10.36 20 9 20 C9.10441406 19.35933594 9.20882813 18.71867187 9.31640625 18.05859375 C9.58987765 15.14590627 9.63905986 12.8653272 9 10 C6.83135254 7.70875844 4.63584965 6.14782532 1.96875 4.47265625 C1.3190625 3.98667969 0.669375 3.50070312 0 3 C0 2.01 0 1.02 0 0 Z " fill="#E3E2E0" transform="translate(16,4)"/>
<path d="M0 0 C5.61 0.33 11.22 0.66 17 1 C14.35345558 2.76436295 12.62409619 3.61351624 9.625 4.4375 C8.87476563 4.66308594 8.12453125 4.88867188 7.3515625 5.12109375 C5 5 5 5 0 0 Z " fill="#796E5D" transform="translate(28,7)"/>
<path d="M0 0 C0.99 0 1.98 0 3 0 C3 0.99 3 1.98 3 3 C3.99 3 4.98 3 6 3 C6 3.66 6 4.32 6 5 C5.01 5 4.02 5 3 5 C3 5.99 3 6.98 3 8 C2.01 8 1.02 8 0 8 C0 7.01 0 6.02 0 5 C-0.66 5 -1.32 5 -2 5 C-2 4.34 -2 3.68 -2 3 C-1.34 3 -0.68 3 0 3 C0 2.01 0 1.02 0 0 Z " fill="#D9D9D8" transform="translate(15,18)"/>
<path d="M0 0 C4.2742558 1.5830577 6.26531794 4.50568404 9 8 C5.12793601 7.42636089 2.81534937 5.65894107 0 3 C0 2.01 0 1.02 0 0 Z " fill="#EEEDEA" transform="translate(16,4)"/>
<path d="M0 0 C0.99 0 1.98 0 3 0 C4.38671875 1.53125 4.38671875 1.53125 5.6875 3.5 C6.12449219 4.1496875 6.56148437 4.799375 7.01171875 5.46875 C7.33785156 5.9740625 7.66398437 6.479375 8 7 C4.59679258 5.98823563 3.24274669 5.35156418 1.1875 2.375 C0.795625 1.59125 0.40375 0.8075 0 0 Z " fill="#716C68" transform="translate(18,4)"/>
</svg>
