<?xml version="1.0" encoding="UTF-8"?>
<svg version="1.1" xmlns="http://www.w3.org/2000/svg" width="52" height="32">
<path d="M0 0 C17.16 0 34.32 0 52 0 C52 10.56 52 21.12 52 32 C34.84 32 17.68 32 0 32 C0 21.44 0 10.88 0 0 Z " fill="#C89B41" transform="translate(0,0)"/>
<path d="M0 0 C0 7.92 0 15.84 0 24 C-15 25.57142857 -15 25.57142857 -21 22 C-21 21.34 -21 20.68 -21 20 C-22.32 19.67 -23.64 19.34 -25 19 C-25 18.34 -25 17.68 -25 17 C-26.258125 17.20625 -27.51625 17.4125 -28.8125 17.625 C-32.4014758 18.21335669 -32.75073878 18.16617415 -36 16 C-35.30058404 12.85262818 -34.23921302 9.97411124 -33 7 C-33.99 7 -34.98 7 -36 7 C-36 4.69 -36 2.38 -36 0 C-27.63440135 1.51939292 -27.63440135 1.51939292 -24.9375 3.5625 C-21.87826284 5.8322566 -18.75417588 5.68715201 -15 6 C-15 5.01 -15 4.02 -15 3 C-10.2575967 -2.69088396 -8.29533749 -0.82953375 0 0 Z " fill="#AF8443" transform="translate(48,4)"/>
<path d="M0 0 C0.66 0.33 1.32 0.66 2 1 C2.6328125 3.06640625 2.6328125 3.06640625 3.125 5.5625 C3.29257812 6.38878906 3.46015625 7.21507812 3.6328125 8.06640625 C3.75398438 8.70449219 3.87515625 9.34257812 4 10 C2.88625 9.979375 1.7725 9.95875 0.625 9.9375 C-2.83215921 9.73619282 -2.83215921 9.73619282 -5 11 C-4.52776086 13.95149462 -3.41735451 16.05218507 -1.875 18.5625 C-0.946875 20.2640625 -0.946875 20.2640625 0 22 C-0.33 22.99 -0.66 23.98 -1 25 C-7.75 23.375 -7.75 23.375 -10 20 C-11.96672915 18.8499169 -11.96672915 18.8499169 -14 18 C-14.66 17.67 -15.32 17.34 -16 17 C-17.37342831 16.9310528 -18.75002102 16.91532292 -20.125 16.9375 C-22.043125 16.9684375 -22.043125 16.9684375 -24 17 C-24 14 -24 14 -22 11 C-22 10.01 -22 9.02 -22 8 C-22.66 7.67 -23.32 7.34 -24 7 C-24.625 4.4375 -24.625 4.4375 -25 2 C-19.70374105 2.44135491 -17.23003158 2.82747631 -13 6 C-10.32387913 6.55493204 -7.73264674 6.77227944 -5 7 C-5 6.01 -5 5.02 -5 4 C-2.5 1.8125 -2.5 1.8125 0 0 Z " fill="#E7E7E6" transform="translate(38,3)"/>
<path d="M0 0 C17.16 0 34.32 0 52 0 C52 10.56 52 21.12 52 32 C34.84 32 17.68 32 0 32 C0 21.44 0 10.88 0 0 Z M1 1 C1 8.92 1 16.84 1 25 C5.94048376 30.88601841 5.94048376 30.88601841 9.39193726 31.7215271 C10.54443466 31.7015416 10.54443466 31.7015416 11.72021484 31.68115234 C12.60067474 31.68069916 13.48113464 31.68024597 14.38827515 31.67977905 C15.31975372 31.64881134 16.2512323 31.61784363 17.2109375 31.5859375 C18.17907379 31.57744781 19.14721008 31.56895813 20.14468384 31.56021118 C23.22261048 31.52674972 26.29787168 31.45148326 29.375 31.375 C31.46740995 31.34489105 33.55986117 31.31751688 35.65234375 31.29296875 C40.77007014 31.23209175 45.88206929 31.11467563 51 31 C51 21.1 51 11.2 51 1 C34.5 1 18 1 1 1 Z " fill="#000000" transform="translate(0,0)"/>
<path d="M0 0 C3.3 0 6.6 0 10 0 C10 9.24 10 18.48 10 28 C-3.86 28 -17.72 28 -32 28 C-32.33 27.34 -32.66 26.68 -33 26 C-19.47 26 -5.94 26 8 26 C8 18.08 8 10.16 8 2 C5.36 2 2.72 2 0 2 C0 1.34 0 0.68 0 0 Z " fill="#B59139" transform="translate(40,2)"/>
<path d="M0 0 C7.92 0 15.84 0 24 0 C23.67 0.66 23.34 1.32 23 2 C22.01 2 21.02 2 20 2 C19.67 2.99 19.34 3.98 19 5 C18.34 5 17.68 5 17 5 C17 5.99 17 6.98 17 8 C8.80327869 8.40983607 8.80327869 8.40983607 5 5 C3.35202764 4.28837557 1.68834592 3.60968047 0 3 C0 2.01 0 1.02 0 0 Z " fill="#9A7E45" transform="translate(16,2)"/>
<path d="M0 0 C0.99 0.495 0.99 0.495 2 1 C2 2.65 2 4.3 2 6 C2.99 6.33 3.98 6.66 5 7 C4.45276317 10.37462715 3.9451 12.08235 2 15 C5.3 15 8.6 15 12 15 C12.33 15.66 12.66 16.32 13 17 C13.66 17.33 14.32 17.66 15 18 C17 19 17 19 18 21 C20.3140622 21.73075648 22.64828869 22.40138258 25 23 C24.67 21.02 24.34 19.04 24 17 C25.5625 18.1875 25.5625 18.1875 27 20 C26.6875 22.6875 26.6875 22.6875 26 25 C22.0507432 24.44894091 18.65079826 23.61064629 15 22 C15 21.34 15 20.68 15 20 C13.68 19.67 12.36 19.34 11 19 C11 18.34 11 17.68 11 17 C9.741875 17.20625 8.48375 17.4125 7.1875 17.625 C3.5985242 18.21335669 3.24926122 18.16617415 0 16 C0.69941596 12.85262818 1.76078698 9.97411124 3 7 C2.01 7 1.02 7 0 7 C0 4.69 0 2.38 0 0 Z " fill="#766A55" transform="translate(12,4)"/>
<path d="M0 0 C4.62 0 9.24 0 14 0 C14 0.99 14 1.98 14 3 C10.04 2.67 6.08 2.34 2 2 C2 8.93 2 15.86 2 23 C1.34 22.67 0.68 22.34 0 22 C0 14.74 0 7.48 0 0 Z " fill="#B08E3B" transform="translate(2,2)"/>
<path d="M0 0 C0.66 0.33 1.32 0.66 2 1 C2.90591398 3.95820059 3.40058396 6.96010437 4 10 C-1.28 9.67 -6.56 9.34 -12 9 C-8 7 -8 7 -5 7 C-5 6.01 -5 5.02 -5 4 C-2.5 1.8125 -2.5 1.8125 0 0 Z " fill="#EEEBE5" transform="translate(38,3)"/>
<path d="M0 0 C3.63 0 7.26 0 11 0 C10.67 0.66 10.34 1.32 10 2 C9.34 2 8.68 2 8 2 C8 2.66 8 3.32 8 4 C5.36 4.33 2.72 4.66 0 5 C-0.33 4.34 -0.66 3.68 -1 3 C-0.67 2.01 -0.34 1.02 0 0 Z " fill="#A98043" transform="translate(24,4)"/>
<path d="M0 0 C0.33 1.32 0.66 2.64 1 4 C1.99 4 2.98 4 4 4 C4 5.98 4 7.96 4 10 C2.14375 9.938125 2.14375 9.938125 0.25 9.875 C-3.01637962 9.86341709 -5.2146947 10.1431298 -8 12 C-7.67 11.01 -7.34 10.02 -7 9 C-3.62182575 8.15545644 -1.32534757 7.89155081 2 9 C1.67 8.443125 1.34 7.88625 1 7.3125 C-0.1309601 4.69715478 -0.15662974 2.8193354 0 0 Z " fill="#796545" transform="translate(40,4)"/>
<path d="M0 0 C2.31 0.33 4.62 0.66 7 1 C7 1.66 7 2.32 7 3 C6.01 3 5.02 3 4 3 C4.33 3.99 4.66 4.98 5 6 C3.68 5.67 2.36 5.34 1 5 C0.67 3.35 0.34 1.7 0 0 Z " fill="#F1EDE9" transform="translate(13,5)"/>
<path d="M0 0 C0.66 0.33 1.32 0.66 2 1 C1.67 1.33 1.34 1.66 1 2 C3.31 2.33 5.62 2.66 8 3 C6 5 6 5 4.0546875 5.1953125 C2.03645833 5.13020833 0.01822917 5.06510417 -2 5 C-2 2 -2 2 0 0 Z " fill="#F0F0EE" transform="translate(16,15)"/>
<path d="M0 0 C2.475 0.99 2.475 0.99 5 2 C5 2.66 5 3.32 5 4 C1.04 4 -2.92 4 -7 4 C-3 2 -3 2 0 2 C0 1.34 0 0.68 0 0 Z " fill="#F4F4F4" transform="translate(33,8)"/>
<path d="M0 0 C1.65 0 3.3 0 5 0 C5 1.32 5 2.64 5 4 C2.525 3.01 2.525 3.01 0 2 C0 1.34 0 0.68 0 0 Z " fill="#DFDFDF" transform="translate(32,24)"/>
</svg>
