<?xml version="1.0" encoding="UTF-8"?>
<svg version="1.1" xmlns="http://www.w3.org/2000/svg" width="52" height="32">
<path d="M0 0 C17.16 0 34.32 0 52 0 C52 10.56 52 21.12 52 32 C34.84 32 17.68 32 0 32 C0 21.44 0 10.88 0 0 Z " fill="#C8662C" transform="translate(0,0)"/>
<path d="M0 0 C2 1 4 2 6 3 C7.73868744 3.15266612 9.48247501 3.24932596 11.2265625 3.31640625 C12.2578125 3.35830078 13.2890625 3.40019531 14.3515625 3.44335938 C15.43179687 3.48267578 16.51203125 3.52199219 17.625 3.5625 C19.25695313 3.62727539 19.25695313 3.62727539 20.921875 3.69335938 C23.6144517 3.7996453 26.30712253 3.90168057 29 4 C28.4140625 10.15234375 28.4140625 10.15234375 28 12 C27.34 12.33 26.68 12.66 26 13 C25.896875 13.639375 25.79375 14.27875 25.6875 14.9375 C25 17 25 17 22.9140625 18.12109375 C19.38337327 19.18597991 16.3696431 19.1938251 12.6875 19.125 C11.43324219 19.10695313 10.17898437 19.08890625 8.88671875 19.0703125 C7.93410156 19.04710938 6.98148438 19.02390625 6 19 C6 18.34 6 17.68 6 17 C4.02 17 2.04 17 0 17 C0.165 15.948125 0.33 14.89625 0.5 13.8125 C0.44382624 10.02641968 0.44382624 10.02641968 -1.78125 8.52734375 C-3.24477145 7.68478827 -4.73537388 6.88741982 -6.25 6.140625 C-6.8275 5.76421875 -7.405 5.3878125 -8 5 C-8 4.01 -8 3.02 -8 2 C-4.7 2.99 -1.4 3.98 2 5 C1.01 4.34 0.02 3.68 -1 3 C-0.67 2.01 -0.34 1.02 0 0 Z " fill="#CFCECE" transform="translate(16,6)"/>
<path d="M0 0 C1.32 0 2.64 0 4 0 C4 0.66 4 1.32 4 2 C5.98 2.66 7.96 3.32 10 4 C10 2.68 10 1.36 10 0 C21.22 0 32.44 0 44 0 C44 2.64 44 5.28 44 8 C43.67 8 43.34 8 43 8 C42.731875 9.134375 42.46375 10.26875 42.1875 11.4375 C41.795625 12.613125 41.40375 13.78875 41 15 C40.01 15.33 39.02 15.66 38 16 C38 17.32 38 18.64 38 20 C34.33664053 22.29545542 30.64372298 22.46441199 26.4375 22.6875 C25.76525391 22.73455078 25.09300781 22.78160156 24.40039062 22.83007812 C21.25457613 23.02063888 19.02005632 23.00668544 16 22 C16 21.34 16 20.68 16 20 C14.35 19.67 12.7 19.34 11 19 C11 16.69 11 14.38 11 12 C10.01 12 9.02 12 8 12 C6.5 10.625 6.5 10.625 5 9 C4.01 8.34 3.02 7.68 2 7 C2 6.01 2 5.02 2 4 C1.34 4 0.68 4 0 4 C0 2.68 0 1.36 0 0 Z M12 2 C12 3.32 12 4.64 12 6 C11.05125 5.67 10.1025 5.34 9.125 5 C6.22937548 3.89840809 6.22937548 3.89840809 4 4 C4 4.99 4 5.98 4 7 C5.78801289 8.21496605 5.78801289 8.21496605 8 9.25 C10.21875 10.52734375 10.21875 10.52734375 12 12 C12.5 15.8125 12.5 15.8125 12 19 C13.98 19 15.96 19 18 19 C18 19.66 18 20.32 18 21 C20.22889496 21.05428973 22.45817471 21.09292338 24.6875 21.125 C25.92886719 21.14820312 27.17023437 21.17140625 28.44921875 21.1953125 C31.83333888 21.00916728 34.03169709 20.59532385 37 19 C37.73323796 16.98491642 37.73323796 16.98491642 38 15 C38.66 14.67 39.32 14.34 40 14 C40.46523063 12.10466658 40.46523063 12.10466658 40.625 9.9375 C40.810625 7.9884375 40.810625 7.9884375 41 6 C40.32420898 5.98541748 39.64841797 5.97083496 38.95214844 5.95581055 C35.88419478 5.88124589 32.81731924 5.78461345 29.75 5.6875 C28.68652344 5.66494141 27.62304688 5.64238281 26.52734375 5.61914062 C25.50253906 5.58369141 24.47773438 5.54824219 23.421875 5.51171875 C22.47924805 5.48553467 21.53662109 5.45935059 20.56542969 5.43237305 C17.61301289 4.93477787 16.28100418 3.87475097 14 2 C13.34 2 12.68 2 12 2 Z " fill="#8F533A" transform="translate(4,4)"/>
<path d="M0 0 C0.66 0 1.32 0 2 0 C2.33 0.99 2.66 1.98 3 3 C4.65948148 4.01187895 6.32580562 5.0126546 8 6 C8 6.66 8 7.32 8 8 C8.99 8 9.98 8 11 8 C11.33 10.31 11.66 12.62 12 15 C13.32 15.33 14.64 15.66 16 16 C16 16.66 16 17.32 16 18 C18.91697011 17.85895309 21.8334802 17.71235186 24.75 17.5625 C25.575 17.52318359 26.4 17.48386719 27.25 17.44335938 C28.04921875 17.40146484 28.8484375 17.35957031 29.671875 17.31640625 C30.77160645 17.26141968 30.77160645 17.26141968 31.89355469 17.20532227 C34.01177605 16.99885215 35.9519456 16.56867914 38 16 C38 14.68 38 13.36 38 12 C38.474375 11.566875 38.94875 11.13375 39.4375 10.6875 C41.81679282 8.11786375 41.68019842 5.38989679 42 2 C44 4 44 4 44.1953125 7.6953125 C44.182009 9.17200108 44.15814835 10.64862358 44.125 12.125 C44.11597656 12.87910156 44.10695312 13.63320313 44.09765625 14.41015625 C44.0740687 16.27357254 44.03819719 18.13682593 44 20 C38.05518819 20.04934399 32.11049491 20.08569282 26.16552734 20.10986328 C24.14206873 20.11993671 22.11862472 20.13359595 20.09521484 20.15087891 C17.19104411 20.17506847 14.28706539 20.18646949 11.3828125 20.1953125 C10.02024826 20.21079636 10.02024826 20.21079636 8.63015747 20.22659302 C7.78943695 20.22674408 6.94871643 20.22689514 6.08251953 20.22705078 C4.96999313 20.23371262 4.96999313 20.23371262 3.83499146 20.24050903 C2 20 2 20 0 18 C-0.22705078 16.12060547 -0.22705078 16.12060547 -0.1953125 13.8671875 C-0.18886719 13.06152344 -0.18242188 12.25585938 -0.17578125 11.42578125 C-0.15064453 10.16314453 -0.15064453 10.16314453 -0.125 8.875 C-0.11597656 8.02550781 -0.10695312 7.17601562 -0.09765625 6.30078125 C-0.07405647 4.20040116 -0.03818483 2.10016556 0 0 Z " fill="#AA502C" transform="translate(4,8)"/>
<path d="M0 0 C17.16 0 34.32 0 52 0 C52 10.56 52 21.12 52 32 C34.84 32 17.68 32 0 32 C0 21.44 0 10.88 0 0 Z M1 1 C1 8.92 1 16.84 1 25 C5.94048376 30.88601841 5.94048376 30.88601841 9.39193726 31.7215271 C10.54443466 31.7015416 10.54443466 31.7015416 11.72021484 31.68115234 C12.60067474 31.68069916 13.48113464 31.68024597 14.38827515 31.67977905 C15.31975372 31.64881134 16.2512323 31.61784363 17.2109375 31.5859375 C18.17907379 31.57744781 19.14721008 31.56895813 20.14468384 31.56021118 C23.22261048 31.52674972 26.29787168 31.45148326 29.375 31.375 C31.46740995 31.34489105 33.55986117 31.31751688 35.65234375 31.29296875 C40.77007014 31.23209175 45.88206929 31.11467563 51 31 C51 21.1 51 11.2 51 1 C34.5 1 18 1 1 1 Z " fill="#000000" transform="translate(0,0)"/>
<path d="M0 0 C10.01834862 3.01834862 10.01834862 3.01834862 13 6 C13 6.66 13 7.32 13 8 C12.34 8 11.68 8 11 8 C11 8.66 11 9.32 11 10 C11.99 9.67 12.98 9.34 14 9 C14.33 8.34 14.66 7.68 15 7 C16.32 7.66 17.64 8.32 19 9 C19 9.99 19 10.98 19 12 C20.32 12.33 21.64 12.66 23 13 C22 14 22 14 18.83984375 14.09765625 C16.90818359 14.08025391 16.90818359 14.08025391 14.9375 14.0625 C13.64714844 14.05347656 12.35679688 14.04445313 11.02734375 14.03515625 C10.02832031 14.02355469 9.02929688 14.01195312 8 14 C8.0825 13.06542969 8.165 12.13085938 8.25 11.16796875 C8.36289978 7.96311649 8.36289978 7.96311649 6.25 6.42578125 C5.13625 5.87470703 5.13625 5.87470703 4 5.3125 C1.75 4.17578125 1.75 4.17578125 0 3 C0 2.01 0 1.02 0 0 Z " fill="#E1E1E1" transform="translate(8,8)"/>
<path d="M0 0 C1.32 0 2.64 0 4 0 C4 0.66 4 1.32 4 2 C5.98 2.66 7.96 3.32 10 4 C10 2.68 10 1.36 10 0 C11.98 0 13.96 0 16 0 C16.66 1.65 17.32 3.3 18 5 C16.02 4.34 14.04 3.68 12 3 C11.77390663 5.12364481 11.77390663 5.12364481 13.5 6.625 C13.995 7.07875 14.49 7.5325 15 8 C13.5410574 7.52269162 12.08286504 7.04308958 10.625 6.5625 C9.81289062 6.29566406 9.00078125 6.02882813 8.1640625 5.75390625 C6 5 6 5 4 4 C4 4.99 4 5.98 4 7 C4.7425 7.268125 5.485 7.53625 6.25 7.8125 C8.86636554 8.94229421 10.80187111 10.20893202 13 12 C12.67 14.31 12.34 16.62 12 19 C11.67 19 11.34 19 11 19 C11 16.69 11 14.38 11 12 C10.01 12 9.02 12 8 12 C6.5 10.625 6.5 10.625 5 9 C4.01 8.34 3.02 7.68 2 7 C2 6.01 2 5.02 2 4 C1.34 4 0.68 4 0 4 C0 2.68 0 1.36 0 0 Z " fill="#715245" transform="translate(4,4)"/>
<path d="M0 0 C0.66 0.33 1.32 0.66 2 1 C1.8125 2.875 1.8125 2.875 1 5 C-3.10570661 7.20605132 -6.71523958 7.2109301 -11.3125 7.125 C-12.56675781 7.10695313 -13.82101563 7.08890625 -15.11328125 7.0703125 C-16.06589844 7.04710937 -17.01851562 7.02390625 -18 7 C-18 6.34 -18 5.68 -18 5 C-19.98 5 -21.96 5 -24 5 C-24 4.67 -24 4.34 -24 4 C-22.68644531 3.96261719 -21.37289063 3.92523437 -20.01953125 3.88671875 C-18.28382636 3.82104343 -16.54815053 3.75459663 -14.8125 3.6875 C-13.94818359 3.66494141 -13.08386719 3.64238281 -12.19335938 3.61914062 C-7.22445844 3.40972334 -4.18756593 2.90283697 0 0 Z " fill="#AAA5A4" transform="translate(40,18)"/>
<path d="M0 0 C2 1 4 2 6 3 C7.87056791 3.2275015 9.74685958 3.40962811 11.625 3.5625 C12.62789062 3.64628906 13.63078125 3.73007813 14.6640625 3.81640625 C15.43492188 3.87699219 16.20578125 3.93757812 17 4 C17 4.66 17 5.32 17 6 C15.68 6 14.36 6 13 6 C12.67 7.32 12.34 8.64 12 10 C8.04 8.02 4.08 6.04 0 4 C0 2.68 0 1.36 0 0 Z " fill="#E6E3E3" transform="translate(16,6)"/>
<path d="M0 0 C10.01834862 3.01834862 10.01834862 3.01834862 13 6 C13 6.66 13 7.32 13 8 C7.71862571 7.48474397 4.42778844 5.74522883 0 3 C0 2.01 0 1.02 0 0 Z " fill="#F0EFEE" transform="translate(8,8)"/>
<path d="M0 0 C1.32 0 2.64 0 4 0 C4 0.66 4 1.32 4 2 C5.32 2.33 6.64 2.66 8 3 C8 3.66 8 4.32 8 5 C6.68 4.67 5.36 4.34 4 4 C3.67 4.66 3.34 5.32 3 6 C3 5.34 3 4.68 3 4 C2.01 4 1.02 4 0 4 C0 2.68 0 1.36 0 0 Z " fill="#8F5B3F" transform="translate(4,4)"/>
<path d="M0 0 C-0.33 0.99 -0.66 1.98 -1 3 C-4.42232972 4.14077657 -7.08673217 4.09815117 -10.6875 4.0625 C-12.45673828 4.04896484 -12.45673828 4.04896484 -14.26171875 4.03515625 C-15.16535156 4.02355469 -16.06898437 4.01195312 -17 4 C-17 3.67 -17 3.34 -17 3 C-16.08476562 2.86722656 -15.16953125 2.73445313 -14.2265625 2.59765625 C-13.03804687 2.42105469 -11.84953125 2.24445312 -10.625 2.0625 C-9.44164062 1.88847656 -8.25828125 1.71445312 -7.0390625 1.53515625 C-4.47352859 1.08338485 -2.5415907 0 0 0 Z " fill="#E8E6E6" transform="translate(40,21)"/>
<path d="M0 0 C3.125 -0.1875 3.125 -0.1875 6 0 C6 0.66 6 1.32 6 2 C4.68 2 3.36 2 2 2 C1.67 3.32 1.34 4.64 1 6 C0.01 5.01 -0.98 4.02 -2 3 C-1.34 2.01 -0.68 1.02 0 0 Z " fill="#F6F6F6" transform="translate(27,10)"/>
<path d="M0 0 C2.475 0.99 2.475 0.99 5 2 C4.34 3.65 3.68 5.3 3 7 C2.01 6.67 1.02 6.34 0 6 C0 5.34 0 4.68 0 4 C0.66 4 1.32 4 2 4 C1.34 2.68 0.68 1.36 0 0 Z " fill="#555555" transform="translate(19,12)"/>
</svg>
