<?xml version="1.0" encoding="UTF-8"?>
<svg version="1.1" xmlns="http://www.w3.org/2000/svg" width="52" height="32">
<path d="M0 0 C17.16 0 34.32 0 52 0 C52 10.56 52 21.12 52 32 C34.84 32 17.68 32 0 32 C0 21.44 0 10.88 0 0 Z " fill="#C79F2D" transform="translate(0,0)"/>
<path d="M0 0 C1.98 0.99 1.98 0.99 4 2 C4.99 1.34 5.98 0.68 7 0 C15.66666667 0 24.33333333 0 33 0 C33 7.92 33 15.84 33 24 C25.08 23.67 17.16 23.34 9 23 C9 14 9 14 10 11 C9.278125 10.45730469 8.55625 9.91460937 7.8125 9.35546875 C6.884375 8.64003906 5.95625 7.92460937 5 7.1875 C4.071875 6.47980469 3.14375 5.77210937 2.1875 5.04296875 C1.465625 4.36878906 0.74375 3.69460937 0 3 C0 2.01 0 1.02 0 0 Z " fill="#AB7C2E" transform="translate(15,4)"/>
<path d="M0 0 C1.79781137 -0.05722774 3.59613612 -0.09852442 5.39453125 -0.1328125 C6.39589111 -0.15746582 7.39725098 -0.18211914 8.42895508 -0.20751953 C9.70162231 -0.10479736 9.70162231 -0.10479736 11 0 C12.6875 2.125 12.6875 2.125 14 5 C16.5506776 7.19584543 19.24405627 9.05728557 22 11 C21.34 14.96 20.68 18.92 20 23 C26.27 23 32.54 23 39 23 C39 23.33 39 23.66 39 24 C33.76726669 24.04935824 28.53466824 24.08569949 23.30175781 24.10986328 C21.52080933 24.11993431 19.73987743 24.13359185 17.95898438 24.15087891 C15.40230217 24.17507913 12.84583815 24.18647184 10.2890625 24.1953125 C9.49005524 24.20563507 8.69104797 24.21595764 7.86782837 24.22659302 C5.9104278 24.22699226 3.95356923 24.12241069 2 24 C0 22 0 22 -0.22705078 19.75341797 C-0.21657715 18.84221191 -0.20610352 17.93100586 -0.1953125 16.9921875 C-0.18886719 16.00605469 -0.18242188 15.01992188 -0.17578125 14.00390625 C-0.15902344 12.97136719 -0.14226562 11.93882813 -0.125 10.875 C-0.11597656 9.83472656 -0.10695312 8.79445313 -0.09765625 7.72265625 C-0.07403747 5.14820908 -0.04110149 2.57421788 0 0 Z " fill="#A77C34" transform="translate(4,4)"/>
<path d="M0 0 C1.98 0.99 1.98 0.99 4 2 C4.99 1.34 5.98 0.68 7 0 C7.67546875 0.51691406 8.3509375 1.03382813 9.046875 1.56640625 C9.93890625 2.22511719 10.8309375 2.88382812 11.75 3.5625 C12.63171875 4.22378906 13.5134375 4.88507812 14.421875 5.56640625 C16.78901885 7.21169623 16.78901885 7.21169623 18.890625 6.77734375 C19.58671875 6.52082031 20.2828125 6.26429687 21 6 C24.465 5.505 24.465 5.505 28 5 C28 9.95 28 14.9 28 20 C23.71 20 19.42 20 15 20 C15.33 16.7 15.66 13.4 16 10 C15.34 10 14.68 10 14 10 C13.67 13.3 13.34 16.6 13 20 C11.68 20 10.36 20 9 20 C8.92572162 16.65747276 8.93453047 14.1964086 10 11 C9.278125 10.45730469 8.55625 9.91460937 7.8125 9.35546875 C6.884375 8.64003906 5.95625 7.92460937 5 7.1875 C4.071875 6.47980469 3.14375 5.77210937 2.1875 5.04296875 C1.465625 4.36878906 0.74375 3.69460937 0 3 C0 2.01 0 1.02 0 0 Z " fill="#E7E7E7" transform="translate(15,4)"/>
<path d="M0 0 C17.16 0 34.32 0 52 0 C52 10.56 52 21.12 52 32 C34.84 32 17.68 32 0 32 C0 21.44 0 10.88 0 0 Z M1 1 C1 8.92 1 16.84 1 25 C5.94048376 30.88601841 5.94048376 30.88601841 9.39193726 31.7215271 C10.54443466 31.7015416 10.54443466 31.7015416 11.72021484 31.68115234 C12.60067474 31.68069916 13.48113464 31.68024597 14.38827515 31.67977905 C15.31975372 31.64881134 16.2512323 31.61784363 17.2109375 31.5859375 C18.17907379 31.57744781 19.14721008 31.56895813 20.14468384 31.56021118 C23.22261048 31.52674972 26.29787168 31.45148326 29.375 31.375 C31.46740995 31.34489105 33.55986117 31.31751688 35.65234375 31.29296875 C40.77007014 31.23209175 45.88206929 31.11467563 51 31 C51 21.1 51 11.2 51 1 C34.5 1 18 1 1 1 Z " fill="#000000" transform="translate(0,0)"/>
<path d="M0 0 C2.5657153 1.23154334 5.07249747 2.56061301 7.5625 3.9375 C8.14128906 4.25589844 8.72007813 4.57429687 9.31640625 4.90234375 C11.25540937 6.1665198 12.62227219 7.12050713 14 9 C14.07421875 11.69921875 14.07421875 11.69921875 13.6875 14.6875 C13.50767578 16.17830078 13.50767578 16.17830078 13.32421875 17.69921875 C13.21722656 18.45847656 13.11023437 19.21773437 13 20 C11.68 20 10.36 20 9 20 C8.92572162 16.65747276 8.93453047 14.1964086 10 11 C9.278125 10.45730469 8.55625 9.91460937 7.8125 9.35546875 C6.884375 8.64003906 5.95625 7.92460937 5 7.1875 C4.071875 6.47980469 3.14375 5.77210937 2.1875 5.04296875 C1.465625 4.36878906 0.74375 3.69460937 0 3 C0 2.01 0 1.02 0 0 Z " fill="#C0C0BE" transform="translate(15,4)"/>
<path d="M0 0 C0.66 0 1.32 0 2 0 C1.67 3.3 1.34 6.6 1 10 C5.29 10 9.58 10 14 10 C14 10.99 14 11.98 14 13 C7.73 13 1.46 13 -5 13 C-5 12.01 -5 11.02 -5 10 C-3.68 10 -2.36 10 -1 10 C-0.67 6.7 -0.34 3.4 0 0 Z " fill="#A0A0A0" transform="translate(29,14)"/>
<path d="M0 0 C0.99 0 1.98 0 3 0 C3.66 1.32 4.32 2.64 5 4 C9.62 4 14.24 4 19 4 C19 9.94 19 15.88 19 22 C18.67 22 18.34 22 18 22 C18 16.39 18 10.78 18 5 C16.7625 5.515625 15.525 6.03125 14.25 6.5625 C11.04603456 7.8974856 9.28801844 8.19986157 6 7 C2.75 5.125 2.75 5.125 0 3 C0 2.01 0 1.02 0 0 Z " fill="#6F695C" transform="translate(25,4)"/>
<path d="M0 0 C1.9375 0.8125 1.9375 0.8125 4 2 C4.33 2.99 4.66 3.98 5 5 C6.84971696 6.05021103 6.84971696 6.05021103 9 7 C11.25 8.5 11.25 8.5 13 10 C13 10.66 13 11.32 13 12 C9.78541276 10.51804579 7.06664104 8.70259491 4.25 6.5625 C3.45078125 5.96566406 2.6515625 5.36882813 1.828125 4.75390625 C0.92320313 3.88572266 0.92320313 3.88572266 0 3 C0 2.01 0 1.02 0 0 Z " fill="#F0F0EE" transform="translate(15,4)"/>
<path d="M0 0 C0.99 0 1.98 0 3 0 C3.309375 0.928125 3.309375 0.928125 3.625 1.875 C5.54775888 4.84653645 7.66594527 5.13024659 11 6 C10.67 6.66 10.34 7.32 10 8 C5.99541169 7.38390949 3.16980331 5.44939347 0 3 C0 2.01 0 1.02 0 0 Z " fill="#887B68" transform="translate(25,4)"/>
<path d="M0 0 C3.465 1.98 3.465 1.98 7 4 C6.67 5.32 6.34 6.64 6 8 C3.69 6.35 1.38 4.7 -1 3 C-0.67 2.01 -0.34 1.02 0 0 Z " fill="#F3F2F0" transform="translate(21,4)"/>
<path d="M0 0 C3.93673644 1.31224548 6.22719294 2.91910327 9 6 C7.68 6 6.36 6 5 6 C5 5.34 5 4.68 5 4 C3.68 4 2.36 4 1 4 C0.67 2.68 0.34 1.36 0 0 Z " fill="#83714C" transform="translate(15,8)"/>
</svg>
