<?xml version="1.0" encoding="UTF-8"?>
<svg version="1.1" xmlns="http://www.w3.org/2000/svg" width="52" height="32">
<path d="M0 0 C17.16 0 34.32 0 52 0 C52 10.56 52 21.12 52 32 C34.84 32 17.68 32 0 32 C0 21.44 0 10.88 0 0 Z " fill="#BF9643" transform="translate(0,0)"/>
<path d="M0 0 C0.66163651 0.00424484 1.32327301 0.00848969 2.00495911 0.01286316 C4.11440035 0.02963182 6.22287971 0.06727776 8.33203125 0.10546875 C9.76365806 0.12051807 11.19529987 0.13420605 12.62695312 0.14648438 C16.13347952 0.17697591 19.63793119 0.23569216 23.14453125 0.29296875 C23.14453125 9.53296875 23.14453125 18.77296875 23.14453125 28.29296875 C15.88453125 28.29296875 8.62453125 28.29296875 1.14453125 28.29296875 C1.14453125 27.30296875 1.14453125 26.31296875 1.14453125 25.29296875 C0.28214844 24.90044922 0.28214844 24.90044922 -0.59765625 24.5 C-5.34055781 21.96443498 -9.72692858 18.31493656 -12.35546875 13.60546875 C-12.85546875 11.29296875 -12.85546875 11.29296875 -12.85546875 7.29296875 C-9.07358994 5.45605618 -6.90978567 5.13459249 -2.85546875 6.29296875 C-2.85546875 4.97296875 -2.85546875 3.65296875 -2.85546875 2.29296875 C-3.45359375 2.64359375 -4.05171875 2.99421875 -4.66796875 3.35546875 C-6.85546875 4.29296875 -6.85546875 4.29296875 -9.85546875 3.29296875 C-7.14573714 -0.45398071 -4.39428046 -0.0556238 0 0 Z " fill="#AF8441" transform="translate(26.85546875,1.70703125)"/>
<path d="M0 0 C0.99 0.33 1.98 0.66 3 1 C3.6875 3.0625 3.6875 3.0625 4 5 C4.99 5 5.98 5 7 5 C7.66 3.68 8.32 2.36 9 1 C12.86654596 1 13.50385736 2.07124559 16.1875 4.75 C16.90292969 5.44609375 17.61835937 6.1421875 18.35546875 6.859375 C20 9 20 9 20 13 C18.68 13.33 17.36 13.66 16 14 C16 14.66 16 15.32 16 16 C12.12488273 15.45015228 10.40423494 13.72444669 7.75 10.9375 C7.04359375 10.20402344 6.3371875 9.47054688 5.609375 8.71484375 C5.07828125 8.14894531 4.5471875 7.58304688 4 7 C7.20760251 10.80635497 10.40746109 14.54563567 14 18 C11.9375 18.4375 11.9375 18.4375 9 18 C6.40494508 15.90740446 4.24570674 13.45544245 2 11 C1.030625 10.113125 0.06125 9.22625 -0.9375 8.3125 C-3 6 -3 6 -3 2 C-2.01 1.34 -1.02 0.68 0 0 Z " fill="#D1CFC9" transform="translate(17,7)"/>
<path d="M0 0 C17.16 0 34.32 0 52 0 C52 10.56 52 21.12 52 32 C34.84 32 17.68 32 0 32 C0 21.44 0 10.88 0 0 Z M1 1 C1 8.92 1 16.84 1 25 C5.94048376 30.88601841 5.94048376 30.88601841 9.39193726 31.7215271 C10.54443466 31.7015416 10.54443466 31.7015416 11.72021484 31.68115234 C12.60067474 31.68069916 13.48113464 31.68024597 14.38827515 31.67977905 C15.31975372 31.64881134 16.2512323 31.61784363 17.2109375 31.5859375 C18.17907379 31.57744781 19.14721008 31.56895813 20.14468384 31.56021118 C23.22261048 31.52674972 26.29787168 31.45148326 29.375 31.375 C31.46740995 31.34489105 33.55986117 31.31751688 35.65234375 31.29296875 C40.77007014 31.23209175 45.88206929 31.11467563 51 31 C51 21.1 51 11.2 51 1 C34.5 1 18 1 1 1 Z " fill="#000000" transform="translate(0,0)"/>
<path d="M0 0 C0 1.32 0 2.64 0 4 C1.32 4 2.64 4 4 4 C4 5.32 4 6.64 4 8 C5.32 8 6.64 8 8 8 C8 9.32 8 10.64 8 12 C8.66 12 9.32 12 10 12 C10 13.32 10 14.64 10 16 C10.66 16 11.32 16 12 16 C11.8125 18.8125 11.8125 18.8125 11 22 C8.5 23.75 8.5 23.75 6 25 C5.67 25.66 5.34 26.32 5 27 C4.01 26.67 3.02 26.34 2 26 C2 25.34 2 24.68 2 24 C1.01 23.67 0.02 23.34 -1 23 C-0.34 22.67 0.32 22.34 1 22 C-1.97 19.03 -4.94 16.06 -8 13 C-7.67 12.34 -7.34 11.68 -7 11 C-6.38511719 11.63808594 -5.77023438 12.27617187 -5.13671875 12.93359375 C-4.32847656 13.75988281 -3.52023438 14.58617187 -2.6875 15.4375 C-1.48673828 16.67306641 -1.48673828 16.67306641 -0.26171875 17.93359375 C1.90470808 20.19403477 1.90470808 20.19403477 5 21 C4.67 20.01 4.34 19.02 4 18 C5.65 18 7.3 18 9 18 C7.54718935 12.67302761 3.91888622 9.63597198 0 6 C-0.598125 6.66 -1.19625 7.32 -1.8125 8 C-4 10 -4 10 -7 10 C-7.33 8.68 -7.66 7.36 -8 6 C-6.35 5.67 -4.7 5.34 -3 5 C-3.33 4.01 -3.66 3.02 -4 2 C-4.598125 2.350625 -5.19625 2.70125 -5.8125 3.0625 C-8 4 -8 4 -11 3 C-8.21756596 -1.17365106 -4.53441502 -0.22300402 0 0 Z " fill="#847A66" transform="translate(28,2)"/>
<path d="M0 0 C1.1055189 0.93590504 2.20935453 1.87379858 3.3125 2.8125 C3.92738281 3.33457031 4.54226562 3.85664063 5.17578125 4.39453125 C6.07876953 5.18923828 6.07876953 5.18923828 7 6 C7.57105469 6.47824219 8.14210938 6.95648438 8.73046875 7.44921875 C10 9 10 9 10 13 C8.35 13 6.7 13 5 13 C5 12.34 5 11.68 5 11 C4.34 11 3.68 11 3 11 C3 10.34 3 9.68 3 9 C2.34 9 1.68 9 1 9 C1 8.34 1 7.68 1 7 C0.34 7 -0.32 7 -1 7 C-1 6.34 -1 5.68 -1 5 C-1.66 5 -2.32 5 -3 5 C-1.125 1.125 -1.125 1.125 0 0 Z " fill="#EFEDEB" transform="translate(27,7)"/>
<path d="M0 0 C1.1055189 0.93590504 2.20935453 1.87379858 3.3125 2.8125 C3.92738281 3.33457031 4.54226562 3.85664063 5.17578125 4.39453125 C7 6 7 6 8.54296875 7.63671875 C10.06935893 9.25492602 10.06935893 9.25492602 13 10 C12.67 9.01 12.34 8.02 12 7 C14.64 7 17.28 7 20 7 C19.8125 8.8125 19.8125 8.8125 19 11 C16.5 12.625 16.5 12.625 14 14 C13.67 14.66 13.34 15.32 13 16 C12.01 15.67 11.02 15.34 10 15 C10 14.34 10 13.68 10 13 C9.01 12.67 8.02 12.34 7 12 C7.66 11.67 8.32 11.34 9 11 C8.3503125 10.37351562 7.700625 9.74703125 7.03125 9.1015625 C6.1959375 8.28429688 5.360625 7.46703125 4.5 6.625 C3.6646875 5.81289063 2.829375 5.00078125 1.96875 4.1640625 C0 2 0 2 0 0 Z " fill="#908E8B" transform="translate(20,13)"/>
<path d="M0 0 C1.65 0 3.3 0 5 0 C5 0.66 5 1.32 5 2 C5.66 2 6.32 2 7 2 C7 2.66 7 3.32 7 4 C7.66 4 8.32 4 9 4 C9 4.66 9 5.32 9 6 C9.66 6 10.32 6 11 6 C11.33 7.65 11.66 9.3 12 11 C8.17753412 10.44040477 6.41028259 8.78682643 3.75 6.0625 C3.04359375 5.35222656 2.3371875 4.64195313 1.609375 3.91015625 C0 2 0 2 0 0 Z " fill="#D9D9D9" transform="translate(21,12)"/>
<path d="M0 0 C4.18423892 3.50897269 8.19588166 7.08060535 12 11 C8.7171341 11.36795695 7.41336988 11.3231932 4.76171875 9.25 C4.07722656 8.5075 3.39273437 7.765 2.6875 7 C1.99011719 6.2575 1.29273438 5.515 0.57421875 4.75 C0.05472656 4.1725 -0.46476562 3.595 -1 3 C-0.67 2.01 -0.34 1.02 0 0 Z " fill="#F4F4F1" transform="translate(19,14)"/>
<path d="M0 0 C0.99 0 1.98 0 3 0 C3 1.32 3 2.64 3 4 C4.32 4 5.64 4 7 4 C7 5.32 7 6.64 7 8 C7.66 8 8.32 8 9 8 C9 9.32 9 10.64 9 12 C9.66 12 10.32 12 11 12 C11 12.66 11 13.32 11 14 C10.01 14 9.02 14 8 14 C7.814375 13.319375 7.62875 12.63875 7.4375 11.9375 C5.41917747 7.81310179 2.33712607 5.09621055 -1 2 C-0.67 1.34 -0.34 0.68 0 0 Z " fill="#897756" transform="translate(29,6)"/>
<path d="M0 0 C0.66 0 1.32 0 2 0 C2 0.66 2 1.32 2 2 C2.53625 2.20625 3.0725 2.4125 3.625 2.625 C6.44685487 4.25870545 8.33740731 6.27586098 10.53515625 8.66015625 C12.07501668 10.25108699 12.07501668 10.25108699 15 11 C16.6875 13.0625 16.6875 13.0625 18 15 C16.35 15 14.7 15 13 15 C13 14.01 13 13.02 13 12 C12.42636719 11.74089844 11.85273438 11.48179688 11.26171875 11.21484375 C8.81027784 9.89809397 6.90765178 8.39035287 4.8125 6.5625 C4.11769531 5.96566406 3.42289063 5.36882813 2.70703125 4.75390625 C1 3 1 3 0 0 Z " fill="#7C6B53" transform="translate(15,15)"/>
<path d="M0 0 C1.13199353 0.9080162 2.25532363 1.82683826 3.375 2.75 C4.00148438 3.26046875 4.62796875 3.7709375 5.2734375 4.296875 C7 6 7 6 9 10 C6.69 8.02 4.38 6.04 2 4 C1.67 4.99 1.34 5.98 1 7 C0.34 7 -0.32 7 -1 7 C-1 6.34 -1 5.68 -1 5 C-1.66 5 -2.32 5 -3 5 C-1.125 1.125 -1.125 1.125 0 0 Z " fill="#F6F5F2" transform="translate(27,7)"/>
<path d="M0 0 C2.64 0 5.28 0 8 0 C7.8125 1.8125 7.8125 1.8125 7 4 C4.5625 5.8125 4.5625 5.8125 2 7 C1.34 6.67 0.68 6.34 0 6 C0 4.02 0 2.04 0 0 Z " fill="#959594" transform="translate(32,20)"/>
<path d="M0 0 C1.32 0.66 2.64 1.32 4 2 C3.34 3.32 2.68 4.64 2 6 C0.68 5.67 -0.64 5.34 -2 5 C-1.125 1.125 -1.125 1.125 0 0 Z " fill="#FBFAF8" transform="translate(22,3)"/>
</svg>
