<?xml version="1.0" encoding="UTF-8"?>
<svg version="1.1" xmlns="http://www.w3.org/2000/svg" width="52" height="32">
<path d="M0 0 C16.5 0 33 0 50 0 C50 9.9 50 19.8 50 30 C43.68122144 30.13786426 37.36766923 30.25726151 31.04858398 30.32958984 C28.89996654 30.35974019 26.75147195 30.40066808 24.60327148 30.45263672 C21.51254977 30.52552773 18.42345641 30.55947388 15.33203125 30.5859375 C13.89426079 30.63238907 13.89426079 30.63238907 12.42744446 30.67977905 C11.52688828 30.68023224 10.62633209 30.68068542 9.69848633 30.68115234 C8.91016922 30.69447601 8.12185211 30.70779968 7.30964661 30.7215271 C5 30 5 30 0 24 C0 16.08 0 8.16 0 0 Z " fill="#805DAD" transform="translate(1,1)"/>
<path d="M0 0 C4.62 0 9.24 0 14 0 C14 9.24 14 18.48 14 28 C2.75 28 2.75 28 -4 25 C-4 24.01 -4 23.02 -4 22 C-5.32 22 -6.64 22 -8 22 C-8 22.66 -8 23.32 -8 24 C-9.32 24 -10.64 24 -12 24 C-12 22.68 -12 21.36 -12 20 C-13.98 20 -15.96 20 -18 20 C-18 21.32 -18 22.64 -18 24 C-19.1875 25.75 -19.1875 25.75 -21 27 C-23.6875 27.1875 -23.6875 27.1875 -26 27 C-26 26.01 -26 25.02 -26 24 C-26.99 24 -27.98 24 -29 24 C-28.45276317 20.62537285 -27.9451 18.91765 -26 16 C-24.0546875 15.48828125 -24.0546875 15.48828125 -21.875 15.3125 C-20.59625 15.209375 -19.3175 15.10625 -18 15 C-18 15.99 -18 16.98 -18 18 C-14.37 18 -10.74 18 -7 18 C-6.67 18.66 -6.34 19.32 -6 20 C-4.6846659 20.70151152 -3.34882408 21.36525925 -2 22 C-1.01 22.66 -0.02 23.32 1 24 C2.65583225 24.69313908 4.32110979 25.36474424 6 26 C5.54658132 24.72740489 5.08704773 23.45698757 4.625 22.1875 C4.36976562 21.47980469 4.11453125 20.77210937 3.8515625 20.04296875 C2.9734231 17.75226641 2.9734231 17.75226641 1 15 C1.375 12.8125 1.375 12.8125 2 11 C4.76264289 10.40267181 7.16032769 10 10 10 C9.34 7.36 8.68 4.72 8 2 C4.88214887 2.64644661 4.88214887 2.64644661 4 5 C3.34 5 2.68 5 2 5 C2 5.99 2 6.98 2 8 C-0.31 8.33 -2.62 8.66 -5 9 C-5.66 8.01 -6.32 7.02 -7 6 C-4.69 6.33 -2.38 6.66 0 7 C0 4.69 0 2.38 0 0 Z " fill="#7E5EA8" transform="translate(36,2)"/>
<path d="M0 0 C0.99 0 1.98 0 3 0 C3.99 2.97 4.98 5.94 6 9 C4.88625 8.979375 3.7725 8.95875 2.625 8.9375 C-0.83215921 8.73619282 -0.83215921 8.73619282 -3 10 C-2.57284915 12.99005594 -2.02444026 14.95991797 -0.4375 17.5625 C1 20 1 20 1 24 C-0.48206495 23.745504 -1.96068615 23.47088238 -3.4375 23.1875 C-4.26121094 23.03667969 -5.08492187 22.88585937 -5.93359375 22.73046875 C-6.61550781 22.48941406 -7.29742187 22.24835937 -8 22 C-8.33 21.01 -8.66 20.02 -9 19 C-9.99 19 -10.98 19 -12 19 C-12 18.01 -12 17.02 -12 16 C-15.63 16 -19.26 16 -23 16 C-22 14 -21 12 -20 10 C-20 8.68 -20 7.36 -20 6 C-20.66 6 -21.32 6 -22 6 C-22.33 4.35 -22.66 2.7 -23 1 C-18.90340898 1.32772728 -16.42607639 1.70707248 -13 4.0625 C-9.39396433 6.39139804 -7.21035669 6.33682854 -3 6 C-3 5.01 -3 4.02 -3 3 C-2.34 3 -1.68 3 -1 3 C-0.67 2.01 -0.34 1.02 0 0 Z " fill="#E6E6E7" transform="translate(41,4)"/>
<path d="M0 0 C16.5 0 33 0 50 0 C50 9.9 50 19.8 50 30 C43.68122144 30.13786426 37.36766923 30.25726151 31.04858398 30.32958984 C28.89996654 30.35974019 26.75147195 30.40066808 24.60327148 30.45263672 C21.51254977 30.52552773 18.42345641 30.55947388 15.33203125 30.5859375 C13.89426079 30.63238907 13.89426079 30.63238907 12.42744446 30.67977905 C11.52688828 30.68023224 10.62633209 30.68068542 9.69848633 30.68115234 C8.91016922 30.69447601 8.12185211 30.70779968 7.30964661 30.7215271 C5 30 5 30 0 24 C0 16.08 0 8.16 0 0 Z M1 1 C1 8.26 1 15.52 1 23 C5.93567572 28.865241 5.93567572 28.865241 9.31600952 29.7215271 C10.04881134 29.70820343 10.78161316 29.69487976 11.53662109 29.68115234 C12.37703949 29.68069916 13.21745789 29.68024597 14.08334351 29.67977905 C14.97107452 29.64881134 15.85880554 29.61784363 16.7734375 29.5859375 C17.6971817 29.57744781 18.6209259 29.56895813 19.57266235 29.56021118 C22.50798764 29.5267631 25.44051261 29.45150164 28.375 29.375 C30.37105393 29.34488921 32.36715114 29.31751536 34.36328125 29.29296875 C39.24412024 29.23211041 44.11894634 29.11469839 49 29 C49 19.76 49 10.52 49 1 C33.16 1 17.32 1 1 1 Z " fill="#B281EB" transform="translate(1,1)"/>
<path d="M0 0 C0.66 0.99 1.32 1.98 2 3 C5.06556598 3.73343428 5.06556598 3.73343428 8 4 C8 4.33 8 4.66 8 5 C5.69 5 3.38 5 1 5 C1 6.32 1 7.64 1 9 C-0.1875 10.75 -0.1875 10.75 -2 12 C-4.6875 12.1875 -4.6875 12.1875 -7 12 C-7 11.01 -7 10.02 -7 9 C-7.99 9 -8.98 9 -10 9 C-9.45276317 5.62537285 -8.9451 3.91765 -7 1 C-3.375 0.3125 -3.375 0.3125 0 0 Z " fill="#635472" transform="translate(17,17)"/>
<path d="M0 0 C3.96 0 7.92 0 12 0 C12 3.96 12 7.92 12 12 C11.01 12 10.02 12 9 12 C8.67 12.66 8.34 13.32 8 14 C8 13.34 8 12.68 8 12 C6.35 12 4.7 12 3 12 C3.33 11.34 3.66 10.68 4 10 C5.98 10 7.96 10 10 10 C9.34 7.36 8.68 4.72 8 2 C4.88214887 2.64644661 4.88214887 2.64644661 4 5 C3.34 5 2.68 5 2 5 C2 5.99 2 6.98 2 8 C-0.31 8.33 -2.62 8.66 -5 9 C-5.66 8.01 -6.32 7.02 -7 6 C-4.69 6.33 -2.38 6.66 0 7 C0 4.69 0 2.38 0 0 Z " fill="#7B6194" transform="translate(36,2)"/>
<path d="M0 0 C0.99 0 1.98 0 3 0 C3.99 2.97 4.98 5.94 6 9 C4.9275 8.979375 3.855 8.95875 2.75 8.9375 C-0.14790424 8.9857984 -2.28612141 9.13155885 -5 10 C-4.42415568 7.61435923 -3.77772405 5.33317216 -3 3 C-2.34 3 -1.68 3 -1 3 C-0.67 2.01 -0.34 1.02 0 0 Z " fill="#EFEEF1" transform="translate(41,4)"/>
<path d="M0 0 C6.625 0.75 6.625 0.75 10 3 C10 3.66 10 4.32 10 5 C8.68 5 7.36 5 6 5 C6 5.99 6 6.98 6 8 C4 8 4 8 2.4375 6.8125 C0.67318459 4.5879284 0.37596209 2.78211944 0 0 Z " fill="#F6F5F8" transform="translate(18,5)"/>
<path d="M0 0 C0.66 1.32 1.32 2.64 2 4 C3.65 4 5.3 4 7 4 C7 7.3 7 10.6 7 14 C0 4.66666667 0 4.66666667 0 0 Z " fill="#6D5A8B" transform="translate(37,14)"/>
<path d="M0 0 C0.99 0 1.98 0 3 0 C3 0.99 3 1.98 3 3 C3.99 3 4.98 3 6 3 C6 3.66 6 4.32 6 5 C5.01 5 4.02 5 3 5 C3 5.99 3 6.98 3 8 C2.01 8 1.02 8 0 8 C0 7.01 0 6.02 0 5 C-0.66 5 -1.32 5 -2 5 C-2 4.34 -2 3.68 -2 3 C-1.34 3 -0.68 3 0 3 C0 2.01 0 1.02 0 0 Z " fill="#DDD8E2" transform="translate(11,20)"/>
<path d="M0 0 C0.99 0.33 1.98 0.66 3 1 C3 3.64 3 6.28 3 9 C2.01 9 1.02 9 0 9 C-0.33 9.66 -0.66 10.32 -1 11 C-1 10.34 -1 9.68 -1 9 C-2.65 9 -4.3 9 -6 9 C-5.67 8.34 -5.34 7.68 -5 7 C-3.02 7 -1.04 7 1 7 C0.67 4.69 0.34 2.38 0 0 Z " fill="#6A567F" transform="translate(45,5)"/>
<path d="M0 0 C2.64 0 5.28 0 8 0 C8.33 1.98 8.66 3.96 9 6 C7.68 6 6.36 6 5 6 C5 4.68 5 3.36 5 2 C3.35 1.67 1.7 1.34 0 1 C0 0.67 0 0.34 0 0 Z " fill="#8A6DAA" transform="translate(19,20)"/>
<path d="M0 0 C0.66 0.99 1.32 1.98 2 3 C5.06556598 3.73343428 5.06556598 3.73343428 8 4 C8 4.33 8 4.66 8 5 C5.03 5 2.06 5 -1 5 C-1.66 3.68 -2.32 2.36 -3 1 C-2.01 0.67 -1.02 0.34 0 0 Z " fill="#6B5481" transform="translate(17,17)"/>
<path d="M0 0 C2.64 0 5.28 0 8 0 C8 0.99 8 1.98 8 3 C5.6568787 2.74438677 3.32156597 2.40729228 1 2 C0.67 1.34 0.34 0.68 0 0 Z " fill="#8863AC" transform="translate(28,6)"/>
<path d="M0 0 C0.66 0 1.32 0 2 0 C2 0.66 2 1.32 2 2 C2.66 2.33 3.32 2.66 4 3 C3.34 3 2.68 3 2 3 C2 3.66 2 4.32 2 5 C0.68 5.33 -0.64 5.66 -2 6 C-1.49396008 3.83125748 -1.00016187 2.00032373 0 0 Z " fill="#FBFBFB" transform="translate(38,8)"/>
</svg>
