<?xml version="1.0" encoding="UTF-8"?>
<svg version="1.1" xmlns="http://www.w3.org/2000/svg" width="52" height="32">
<path d="M0 0 C16.5 0 33 0 50 0 C50 9.9 50 19.8 50 30 C43.84241291 30.11497569 37.6885682 30.21445753 31.53076172 30.2746582 C29.4375342 30.2997588 27.34439395 30.33384677 25.25146484 30.37719727 C22.23773641 30.43804451 19.22516941 30.4662545 16.2109375 30.48828125 C14.81371964 30.52699089 14.81371964 30.52699089 13.38827515 30.56648254 C12.50781525 30.5668602 11.62735535 30.56723785 10.72021484 30.56762695 C9.56771744 30.58428154 9.56771744 30.58428154 8.39193726 30.60127258 C6 30 6 30 0 25 C0 16.75 0 8.5 0 0 Z " fill="#956BC8" transform="translate(1,1)"/>
<path d="M0 0 C11.88 0 23.76 0 36 0 C35.01 1.65 34.02 3.3 33 5 C32.34 5 31.68 5 31 5 C31 5.99 31 6.98 31 8 C26.77173244 9.01478421 24.80478486 9.48622419 21 7.1875 C20.01 6.465625 19.02 5.74375 18 5 C15.68191434 4.14127596 13.41041493 3.57849958 11 3 C11.33 4.65 11.66 6.3 12 8 C12.66 8 13.32 8 14 8 C14.75 10.1875 14.75 10.1875 15 13 C13.0625 15.8125 13.0625 15.8125 11 18 C14.63 18 18.26 18 22 18 C22.33 18.66 22.66 19.32 23 20 C24.3153341 20.70151152 25.65117592 21.36525925 27 22 C27.99 22.66 28.98 23.32 30 24 C31.65583225 24.69313908 33.32110979 25.36474424 35 26 C33.67655002 21.36792507 31.70261381 17.96383358 29 14 C29 13.34 29 12.68 29 12 C33.12168689 10.37049588 35.70700357 9.73735399 40 11 C39.34 10.01 38.68 9.02 38 8 C38.375 5.8125 38.375 5.8125 39 4 C39 4.99 39 5.98 39 7 C40.65 7 42.3 7 44 7 C44 9.64 44 12.28 44 15 C41.36 15 38.72 15 36 15 C36.11389875 16.79240663 36.24147687 18.58394835 36.375 20.375 C36.47941406 21.87160156 36.47941406 21.87160156 36.5859375 23.3984375 C36.76363964 26.15508879 36.76363964 26.15508879 39 28 C34.41029919 28.14894186 29.82202078 28.25748633 25.23046875 28.32958984 C23.67064903 28.359661 22.110997 28.400531 20.55175781 28.45263672 C5.93210809 28.92875558 5.93210809 28.92875558 1.96875 25.6875 C-1.25285485 21.25435145 -0.63574506 15.84682361 -0.375 10.625 C-0.25125 7.11875 -0.1275 3.6125 0 0 Z " fill="#7E5DA9" transform="translate(2,2)"/>
<path d="M0 0 C0.99 3.3 1.98 6.6 3 10 C1.9275 9.979375 0.855 9.95875 -0.25 9.9375 C-3.19803899 9.98663398 -5.23404147 10.22283909 -8 11 C-7.566875 11.59167969 -7.13375 12.18335938 -6.6875 12.79296875 C-6.130625 13.58316406 -5.57375 14.37335937 -5 15.1875 C-4.443125 15.96480469 -3.88625 16.74210937 -3.3125 17.54296875 C-1.848631 20.28336637 -1.73919787 21.94100837 -2 25 C-3.48206495 24.745504 -4.96068615 24.47088238 -6.4375 24.1875 C-7.26121094 24.03667969 -8.08492187 23.88585937 -8.93359375 23.73046875 C-9.61550781 23.48941406 -10.29742187 23.24835937 -11 23 C-11.33 22.01 -11.66 21.02 -12 20 C-12.99 20 -13.98 20 -15 20 C-15 19.01 -15 18.02 -15 17 C-18.63 17 -22.26 17 -26 17 C-25 15 -24 13 -23 11 C-23 9.68 -23 8.36 -23 7 C-23.66 7 -24.32 7 -25 7 C-25.33 5.35 -25.66 3.7 -26 2 C-21.90340898 2.32772728 -19.42607639 2.70707248 -16 5.0625 C-12.39396433 7.39139804 -10.21035669 7.33682854 -6 7 C-6 6.01 -6 5.02 -6 4 C-2.57142857 0 -2.57142857 0 0 0 Z " fill="#E6E5E7" transform="translate(39,3)"/>
<path d="M0 0 C0.33 0.99 0.66 1.98 1 3 C2.65 3 4.3 3 6 3 C6 5.64 6 8.28 6 11 C3.36 11 0.72 11 -2 11 C-1.87431641 12.17369141 -1.87431641 12.17369141 -1.74609375 13.37109375 C-1.64425781 14.38300781 -1.54242188 15.39492188 -1.4375 16.4375 C-1.33308594 17.44683594 -1.22867188 18.45617187 -1.12109375 19.49609375 C-1.08113281 20.32238281 -1.04117188 21.14867188 -1 22 C-1.33 22.33 -1.66 22.66 -2 23 C-6.04352289 22.53343967 -10.01928836 21.84439338 -14 21 C-14 20.01 -14 19.02 -14 18 C-14.639375 17.855625 -15.27875 17.71125 -15.9375 17.5625 C-18 17 -18 17 -19 16 C-21.33297433 15.95907063 -23.66705225 15.95758277 -26 16 C-26 15.67 -26 15.34 -26 15 C-22.7 14.67 -19.4 14.34 -16 14 C-15.67 14.66 -15.34 15.32 -15 16 C-13.6846659 16.70151152 -12.34882408 17.36525925 -11 18 C-10.01 18.66 -9.02 19.32 -8 20 C-6.34416775 20.69313908 -4.67889021 21.36474424 -3 22 C-4.32344998 17.36792507 -6.29738619 13.96383358 -9 10 C-9 9.34 -9 8.68 -9 8 C-4.87831311 6.37049588 -2.29299643 5.73735399 2 7 C1.34 6.01 0.68 5.02 0 4 C0 2.68 0 1.36 0 0 Z " fill="#8161AD" transform="translate(40,6)"/>
<path d="M0 0 C0.99 3.3 1.98 6.6 3 10 C1.9275 9.979375 0.855 9.95875 -0.25 9.9375 C-3.74587713 9.81482772 -3.74587713 9.81482772 -5.94921875 10.625 C-8.72357039 11.13231001 -10.06938566 10.31538487 -12.5625 9.0625 C-15.42128787 7.6403374 -16.75245364 7 -20 7 C-20.99 8.485 -20.99 8.485 -22 10 C-24.89932357 7.60490662 -25.50168276 5.68754757 -26 2 C-21.90340898 2.32772728 -19.42607639 2.70707248 -16 5.0625 C-12.39396433 7.39139804 -10.21035669 7.33682854 -6 7 C-6 6.01 -6 5.02 -6 4 C-2.57142857 0 -2.57142857 0 0 0 Z " fill="#F5F4F6" transform="translate(39,3)"/>
<path d="M0 0 C0.66 0.33 1.32 0.66 2 1 C1.01 1.33 0.02 1.66 -1 2 C-0.39816251 4.02045442 0.27306096 6.02111039 1 8 C1.66 8.33 2.32 8.66 3 9 C3.6875 12.5 3.6875 12.5 4 16 C3.67 16.33 3.34 16.66 3 17 C-1.04352289 16.53343967 -5.01928836 15.84439338 -9 15 C-9 14.01 -9 13.02 -9 12 C-9.639375 11.855625 -10.27875 11.71125 -10.9375 11.5625 C-13 11 -13 11 -14 10 C-16.33297433 9.95907063 -18.66705225 9.95758277 -21 10 C-21 9.67 -21 9.34 -21 9 C-17.7 8.67 -14.4 8.34 -11 8 C-10.67 8.66 -10.34 9.32 -10 10 C-8.6846659 10.70151152 -7.34882408 11.36525925 -6 12 C-5.01 12.66 -4.02 13.32 -3 14 C-1.34416775 14.69313908 0.32110979 15.36474424 2 16 C0.67655002 11.36792507 -1.29738619 7.96383358 -4 4 C-4 3.34 -4 2.68 -4 2 C-2.125 0.9375 -2.125 0.9375 0 0 Z " fill="#665A74" transform="translate(35,12)"/>
<path d="M0 0 C3.96 0 7.92 0 12 0 C12 1.32 12 2.64 12 4 C11.34 4 10.68 4 10 4 C9.67 4.99 9.34 5.98 9 7 C7.35 7 5.7 7 4 7 C4 5.68 4 4.36 4 3 C2.68 3 1.36 3 0 3 C0 2.01 0 1.02 0 0 Z " fill="#835EB0" transform="translate(22,2)"/>
<path d="M0 0 C5.49100742 0.43928059 8.5814698 1.75974452 13 5 C14.3191582 5.69429379 15.64649406 6.37530495 17 7 C13.28400809 7.20086443 12.22791555 7.1519437 9 5 C8.01 5 7.02 5 6 5 C5.01 6.485 5.01 6.485 4 8 C1.10067643 5.60490662 0.49831724 3.68754757 0 0 Z " fill="#F4F2F6" transform="translate(13,5)"/>
<path d="M0 0 C7.51294612 -0.36948915 7.51294612 -0.36948915 9.8125 1.375 C10.204375 1.91125 10.59625 2.4475 11 3 C11.99 3.66 12.98 4.32 14 5 C9.38 5 4.76 5 0 5 C0 3.35 0 1.7 0 0 Z " fill="#8567A7" transform="translate(12,20)"/>
<path d="M0 0 C1.32 0 2.64 0 4 0 C4.625 2.875 4.625 2.875 5 6 C4.34 6.66 3.68 7.32 3 8 C2.01 8 1.02 8 0 8 C0 5.36 0 2.72 0 0 Z " fill="#8764AA" transform="translate(10,9)"/>
<path d="M0 0 C0.66 0 1.32 0 2 0 C2.99 3.3 3.98 6.6 5 10 C3.35 10 1.7 10 0 10 C0.33 8.02 0.66 6.04 1 4 C0.34 4 -0.32 4 -1 4 C-0.67 2.68 -0.34 1.36 0 0 Z " fill="#E4E0E9" transform="translate(37,3)"/>
<path d="M0 0 C0.33 0.99 0.66 1.98 1 3 C2.65 3 4.3 3 6 3 C6 4.32 6 5.64 6 7 C1.545 7.495 1.545 7.495 -3 8 C-3 7.67 -3 7.34 -3 7 C-1.35 7 0.3 7 2 7 C1.34 6.01 0.68 5.02 0 4 C0 2.68 0 1.36 0 0 Z " fill="#68578E" transform="translate(40,6)"/>
</svg>
