<?xml version="1.0" encoding="UTF-8"?>
<svg version="1.1" xmlns="http://www.w3.org/2000/svg" width="52" height="32">
<path d="M0 0 C16.5 0 33 0 50 0 C50 9.9 50 19.8 50 30 C43.82411073 30.11488839 37.65193723 30.21439644 31.47583008 30.2746582 C29.3757673 30.29978051 27.27579177 30.33388458 25.17602539 30.37719727 C22.1548916 30.43794871 19.13491504 30.46623263 16.11328125 30.48828125 C15.17664139 30.51408768 14.24000153 30.5398941 13.27497864 30.56648254 C8.60975036 30.56848343 6.67836103 30.54541889 2.93041992 27.53198242 C2.29338135 26.69642822 1.65634277 25.86087402 1 25 C0.67 24.67 0.34 24.34 0 24 C0 16.08 0 8.16 0 0 Z " fill="#4C91AF" transform="translate(1,1)"/>
<path d="M0 0 C7.92 0 15.84 0 24 0 C24 1.32 24 2.64 24 4 C22.68 4 21.36 4 20 4 C20 5.32 20 6.64 20 8 C18.68 8 17.36 8 16 8 C16.33 10.31 16.66 12.62 17 15 C16.030625 15.309375 15.06125 15.61875 14.0625 15.9375 C11.15934208 16.69523342 11.15934208 16.69523342 10 18 C10.763125 18 11.52625 18 12.3125 18 C14.20833333 18 16.10416667 18 18 18 C17.67 18.33 17.34 18.66 17 19 C16.95919217 20.99958364 16.95745644 23.00045254 17 25 C17.99 25 18.98 25 20 25 C20 25.99 20 26.98 20 28 C17.79415865 28.16317183 15.58478059 28.27892258 13.375 28.375 C12.14523437 28.44460937 10.91546875 28.51421875 9.6484375 28.5859375 C5.54193747 27.92643535 3.8176503 27.10726018 1.10302734 24.03662109 C-1.16566888 19.84771807 -0.60612034 15.25354281 -0.375 10.625 C-0.25125 7.11875 -0.1275 3.6125 0 0 Z " fill="#4D93B2" transform="translate(2,2)"/>
<path d="M0 0 C16.5 0 33 0 50 0 C50 9.9 50 19.8 50 30 C43.82411073 30.11488839 37.65193723 30.21439644 31.47583008 30.2746582 C29.3757673 30.29978051 27.27579177 30.33388458 25.17602539 30.37719727 C22.1548916 30.43794871 19.13491504 30.46623263 16.11328125 30.48828125 C15.17664139 30.51408768 14.24000153 30.5398941 13.27497864 30.56648254 C8.60975036 30.56848343 6.67836103 30.54541889 2.93041992 27.53198242 C2.29338135 26.69642822 1.65634277 25.86087402 1 25 C0.67 24.67 0.34 24.34 0 24 C0 16.08 0 8.16 0 0 Z M1 1 C1 8.26 1 15.52 1 23 C5.93567572 28.865241 5.93567572 28.865241 9.31600952 29.7215271 C10.04881134 29.70820343 10.78161316 29.69487976 11.53662109 29.68115234 C12.37703949 29.68069916 13.21745789 29.68024597 14.08334351 29.67977905 C14.97107452 29.64881134 15.85880554 29.61784363 16.7734375 29.5859375 C17.6971817 29.57744781 18.6209259 29.56895813 19.57266235 29.56021118 C22.50798764 29.5267631 25.44051261 29.45150164 28.375 29.375 C30.37105393 29.34488921 32.36715114 29.31751536 34.36328125 29.29296875 C39.24412024 29.23211041 44.11894634 29.11469839 49 29 C49 19.76 49 10.52 49 1 C33.16 1 17.32 1 1 1 Z " fill="#68CDF1" transform="translate(1,1)"/>
<path d="M0 0 C1.98 1.65 3.96 3.3 6 5 C5.07347299 6.17539996 4.13336613 7.34010577 3.1875 8.5 C2.66542969 9.1496875 2.14335937 9.799375 1.60546875 10.46875 C0 12 0 12 -3 12 C-3.33 13.98 -3.66 15.96 -4 18 C-4.99 18.33 -5.98 18.66 -7 19 C-7 17.02 -7 15.04 -7 13 C-7.33 13 -7.66 13 -8 13 C-10 13 -12 13 -14 13 C-12.8125 11 -12.8125 11 -11 9 C-8.3125 8.75 -8.3125 8.75 -6 9 C-5.938125 8.443125 -5.87625 7.88625 -5.8125 7.3125 C-4.66626128 4.05012827 -2.50609803 2.31332126 0 0 Z " fill="#E7E9EA" transform="translate(25,8)"/>
<path d="M0 0 C2.18171354 0.97800952 3.77097126 1.74110849 5.36872864 3.54719543 C7.44791538 5.39891187 8.53322069 5.39198271 11.2878418 5.43237305 C12.14850754 5.45216721 13.00917328 5.47196136 13.8959198 5.49235535 C14.82100845 5.49874527 15.74609711 5.50513519 16.69921875 5.51171875 C18.12449638 5.53864555 18.12449638 5.53864555 19.5785675 5.56611633 C22.61483313 5.62031893 25.65094067 5.65414704 28.6875 5.6875 C30.74546475 5.72066428 32.80340862 5.7551531 34.86132812 5.79101562 C39.90743819 5.8760512 44.95350056 5.94281498 50 6 C50 6.33 50 6.66 50 7 C43.82535087 7.12372902 37.65142544 7.21440144 31.47583008 7.2746582 C29.3757673 7.29978051 27.27579177 7.33388458 25.17602539 7.37719727 C22.1548916 7.43794871 19.13491504 7.46623263 16.11328125 7.48828125 C15.17664139 7.51408768 14.24000153 7.5398941 13.27497864 7.56648254 C8.65311619 7.56846483 6.67412481 7.52828695 2.93041992 4.59448242 C1 2 1 2 0 0 Z " fill="#63C6E9" transform="translate(1,24)"/>
<path d="M0 0 C0.99 0.33 1.98 0.66 3 1 C3 1.99 3 2.98 3 4 C3.66 4 4.32 4 5 4 C5.33 2.68 5.66 1.36 6 0 C6.66 0 7.32 0 8 0 C8 2.97 8 5.94 8 9 C7.236875 8.814375 6.47375 8.62875 5.6875 8.4375 C2.91032625 7.77180827 2.91032625 7.77180827 0 9 C0 6.03 0 3.06 0 0 Z " fill="#BBBEC0" transform="translate(32,18)"/>
<path d="M0 0 C1.37432457 3.81756824 0.67975039 7.07255329 0 11 C-0.99 11.33 -1.98 11.66 -3 12 C-3 10.02 -3 8.04 -3 6 C-3.33 6 -3.66 6 -4 6 C-6 6 -8 6 -10 6 C-9.01 4.68 -8.02 3.36 -7 2 C-4.03 2.495 -4.03 2.495 -1 3 C-0.67 2.01 -0.34 1.02 0 0 Z " fill="#DEDFE0" transform="translate(21,15)"/>
<path d="M0 0 C0.66 0.33 1.32 0.66 2 1 C2 2.32 2 3.64 2 5 C3.32 5.66 4.64 6.32 6 7 C6 7.99 6 8.98 6 10 C3.04590299 8.62845496 0.55991624 7.01136276 -2 5 C-4.97 7.475 -4.97 7.475 -8 10 C-8.33 8.68 -8.66 7.36 -9 6 C-7.68 6 -6.36 6 -5 6 C-5 4.68 -5 3.36 -5 2 C-2.625 0.9375 -2.625 0.9375 0 0 Z " fill="#547B8D" transform="translate(27,4)"/>
<path d="M0 0 C1.98 0 3.96 0 6 0 C5.67 2.31 5.34 4.62 5 7 C1 7 1 7 -0.75 5.5 C-1.1625 5.005 -1.575 4.51 -2 4 C-1.34 2.68 -0.68 1.36 0 0 Z " fill="#E7EBEC" transform="translate(29,4)"/>
<path d="M0 0 C0 0.99 0 1.98 0 3 C-0.7115625 3.6496875 -0.7115625 3.6496875 -1.4375 4.3125 C-3.62100982 6.6706906 -3.65266951 8.87402561 -4 12 C-6.31 12.66 -8.62 13.32 -11 14 C-8.65643197 6.47591318 -8.65643197 6.47591318 -5.5 4.1875 C-4.675 3.795625 -3.85 3.40375 -3 3 C-1.24850835 1.41754725 -1.24850835 1.41754725 0 0 Z " fill="#508193" transform="translate(30,14)"/>
<path d="M0 0 C0.66 0.66 1.32 1.32 2 2 C1.625 4.625 1.625 4.625 1 7 C0.34 7 -0.32 7 -1 7 C-1.04254356 5.00045254 -1.04080783 2.99958364 -1 1 C-0.67 0.67 -0.34 0.34 0 0 Z " fill="#CCD2D4" transform="translate(19,20)"/>
<path d="M0 0 C2.64 0 5.28 0 8 0 C7.01 0.495 7.01 0.495 6 1 C5.34786708 3.02463255 5.34786708 3.02463255 5 5 C4.34 5 3.68 5 3 5 C2.67 4.01 2.34 3.02 2 2 C1.34 1.34 0.68 0.68 0 0 Z " fill="#50717F" transform="translate(32,17)"/>
</svg>
