<?xml version="1.0" encoding="UTF-8"?>
<svg version="1.1" xmlns="http://www.w3.org/2000/svg" width="52" height="32">
<path d="M0 0 C16.5 0 33 0 50 0 C50 9.9 50 19.8 50 30 C43.68122144 30.13786426 37.36766923 30.25726151 31.04858398 30.32958984 C28.89996654 30.35974019 26.75147195 30.40066808 24.60327148 30.45263672 C21.51254977 30.52552773 18.42345641 30.55947388 15.33203125 30.5859375 C13.89426079 30.63238907 13.89426079 30.63238907 12.42744446 30.67977905 C11.52688828 30.68023224 10.62633209 30.68068542 9.69848633 30.68115234 C8.91016922 30.69447601 8.12185211 30.70779968 7.30964661 30.7215271 C5 30 5 30 0 24 C0 16.08 0 8.16 0 0 Z " fill="#4B95B6" transform="translate(1,1)"/>
<path d="M0 0 C7.26 0 14.52 0 22 0 C22 9.24 22 18.48 22 28 C11 28 11 28 6 26 C6 25.34 6 24.68 6 24 C5.34 24 4.68 24 4 24 C4 22.02 4 20.04 4 18 C5.74627478 20.61941217 6.38722388 22.03824877 7 25 C7.66 25 8.32 25 9 25 C9.33 22.69 9.66 20.38 10 18 C9.67 18.99 9.34 19.98 9 21 C8.34 21 7.68 21 7 21 C6.87625 20.195625 6.7525 19.39125 6.625 18.5625 C6.41875 17.716875 6.2125 16.87125 6 16 C5.34 15.67 4.68 15.34 4 15 C4.99 15 5.98 15 7 15 C6.814375 13.783125 6.62875 12.56625 6.4375 11.3125 C6.01006818 7.97022061 6.07741117 5.28031583 7 2 C4.69 2.33 2.38 2.66 0 3 C0 2.01 0 1.02 0 0 Z " fill="#4B95B5" transform="translate(28,2)"/>
<path d="M0 0 C16.5 0 33 0 50 0 C50 9.9 50 19.8 50 30 C43.68122144 30.13786426 37.36766923 30.25726151 31.04858398 30.32958984 C28.89996654 30.35974019 26.75147195 30.40066808 24.60327148 30.45263672 C21.51254977 30.52552773 18.42345641 30.55947388 15.33203125 30.5859375 C13.89426079 30.63238907 13.89426079 30.63238907 12.42744446 30.67977905 C11.52688828 30.68023224 10.62633209 30.68068542 9.69848633 30.68115234 C8.91016922 30.69447601 8.12185211 30.70779968 7.30964661 30.7215271 C5 30 5 30 0 24 C0 16.08 0 8.16 0 0 Z M1 1 C1 8.26 1 15.52 1 23 C5.93567572 28.865241 5.93567572 28.865241 9.31600952 29.7215271 C10.04881134 29.70820343 10.78161316 29.69487976 11.53662109 29.68115234 C12.37703949 29.68069916 13.21745789 29.68024597 14.08334351 29.67977905 C14.97107452 29.64881134 15.85880554 29.61784363 16.7734375 29.5859375 C17.6971817 29.57744781 18.6209259 29.56895813 19.57266235 29.56021118 C22.50798764 29.5267631 25.44051261 29.45150164 28.375 29.375 C30.37105393 29.34488921 32.36715114 29.31751536 34.36328125 29.29296875 C39.24412024 29.23211041 44.11894634 29.11469839 49 29 C49 19.76 49 10.52 49 1 C33.16 1 17.32 1 1 1 Z " fill="#68CCF2" transform="translate(1,1)"/>
<path d="M0 0 C0.33 0 0.66 0 1 0 C1 4 1 8 1 12 C1.66 12 2.32 12 3 12 C3.33 10.35 3.66 8.7 4 7 C5.25541557 10.76624671 4.37061958 12.37188934 3 16 C2.34 16 1.68 16 1 16 C0.34 14.68 -0.32 13.36 -1 12 C-1.33 12.99 -1.66 13.98 -2 15 C-1.34 15 -0.68 15 0 15 C0 15.66 0 16.32 0 17 C1.65 17.33 3.3 17.66 5 18 C5 18.33 5 18.66 5 19 C-1.27 19 -7.54 19 -14 19 C-13.34 17.68 -12.68 16.36 -12 15 C-11.34 15 -10.68 15 -10 15 C-10 13.68 -10 12.36 -10 11 C-8.68 11 -7.36 11 -6 11 C-5.896875 10.236875 -5.79375 9.47375 -5.6875 8.6875 C-4.95288806 5.81583516 -4.3283935 4.76957906 -2 3 C-1.34 3 -0.68 3 0 3 C0 2.01 0 1.02 0 0 Z " fill="#4D97B4" transform="translate(34,11)"/>
<path d="M0 0 C1.98 1.65 3.96 3.3 6 5 C5.07347299 6.17539996 4.13336613 7.34010577 3.1875 8.5 C2.66542969 9.1496875 2.14335937 9.799375 1.60546875 10.46875 C0 12 0 12 -3 12 C-3.33 13.98 -3.66 15.96 -4 18 C-4.99 18.33 -5.98 18.66 -7 19 C-7.20086443 15.28400809 -7.1519437 14.22791555 -5 11 C-5.99 11.66 -6.98 12.32 -8 13 C-10.6875 13.125 -10.6875 13.125 -13 13 C-12.1875 11.0625 -12.1875 11.0625 -11 9 C-10.01 8.67 -9.02 8.34 -8 8 C-7.34 8.33 -6.68 8.66 -6 9 C-5.938125 8.443125 -5.87625 7.88625 -5.8125 7.3125 C-4.66626128 4.05012827 -2.50609803 2.31332126 0 0 Z " fill="#E4E7E9" transform="translate(25,8)"/>
<path d="M0 0 C0.763125 0.825 1.52625 1.65 2.3125 2.5 C4.75434142 5.34055197 4.75434142 5.34055197 8 5 C8 5.99 8 6.98 8 8 C7.195625 8.639375 6.39125 9.27875 5.5625 9.9375 C2.87561287 11.73434261 2.87561287 11.73434261 2.1875 14.25 C2.0946875 15.11625 2.0946875 15.11625 2 16 C0.68 16 -0.64 16 -2 16 C-2 17.32 -2 18.64 -2 20 C-3.96466413 21.06775224 -5.96855359 22.06553465 -8 23 C-8.66 22.67 -9.32 22.34 -10 22 C-10 20.02 -10 18.04 -10 16 C-12.64 16 -15.28 16 -18 16 C-18 14.68 -18 13.36 -18 12 C-16.68 12 -15.36 12 -14 12 C-14 11.34 -14 10.68 -14 10 C-13.01 10.33 -12.02 10.66 -11 11 C-11.99 12.32 -12.98 13.64 -14 15 C-11.36 14.34 -8.72 13.68 -6 13 C-6.66 15.64 -7.32 18.28 -8 21 C-5.60637693 18.93053177 -5.60637693 18.93053177 -4.625 16 C-3.69654587 13.02894678 -1.63626936 12.50643964 1 11 C2.78344178 8.93045153 2.78344178 8.93045153 4 7 C2.35 5.02 0.7 3.04 -1 1 C-0.67 0.67 -0.34 0.34 0 0 Z " fill="#5B7480" transform="translate(26,6)"/>
<path d="M0 0 C2.64 0 5.28 0 8 0 C8 3.96 8 7.92 8 12 C9.32 12 10.64 12 12 12 C12 13.32 12 14.64 12 16 C11.34 16 10.68 16 10 16 C9.67 17.65 9.34 19.3 9 21 C8.34 21 7.68 21 7 21 C6.87625 20.195625 6.7525 19.39125 6.625 18.5625 C6.41875 17.716875 6.2125 16.87125 6 16 C5.34 15.67 4.68 15.34 4 15 C4.99 15 5.98 15 7 15 C6.814375 13.783125 6.62875 12.56625 6.4375 11.3125 C6.01006818 7.97022061 6.07741117 5.28031583 7 2 C4.69 2.33 2.38 2.66 0 3 C0 2.01 0 1.02 0 0 Z " fill="#50899E" transform="translate(28,2)"/>
<path d="M0 0 C2.18514659 0.97954847 3.77163238 1.74089856 5.36872864 3.55293274 C7.46186031 5.40970677 8.52129761 5.36491527 11.2878418 5.34057617 C12.14850754 5.34034958 13.00917328 5.34012299 13.8959198 5.33988953 C14.82100845 5.32440567 15.74609711 5.30892181 16.69921875 5.29296875 C17.64940384 5.28872391 18.59958893 5.28447906 19.5785675 5.28010559 C22.61516588 5.26330484 25.65110202 5.22564992 28.6875 5.1875 C30.74543313 5.17245497 32.80337665 5.15876625 34.86132812 5.14648438 C39.90780748 5.11339671 44.95379144 5.06160462 50 5 C50 5.66 50 6.32 50 7 C43.68317602 7.15228752 37.36682613 7.25727116 31.04858398 7.32958984 C28.89996654 7.35974019 26.75147195 7.40066808 24.60327148 7.45263672 C21.51254977 7.52552773 18.42345641 7.55947388 15.33203125 7.5859375 C13.89426079 7.63238907 13.89426079 7.63238907 12.42744446 7.67977905 C5.89204998 7.68306785 5.89204998 7.68306785 3.24935913 5.65948486 C0 1.85464631 0 1.85464631 0 0 Z " fill="#65C6EA" transform="translate(1,24)"/>
<path d="M0 0 C1.98 0 3.96 0 6 0 C5.67 2.31 5.34 4.62 5 7 C1 7 1 7 -0.75 5.5 C-1.1625 5.005 -1.575 4.51 -2 4 C-1.34 2.68 -0.68 1.36 0 0 Z " fill="#E7ECED" transform="translate(29,4)"/>
<path d="M0 0 C1.74627478 2.61941217 2.38722388 4.03824877 3 7 C3.66 7 4.32 7 5 7 C5.33 5.02 5.66 3.04 6 1 C6.66 1 7.32 1 8 1 C8.125 3.375 8.125 3.375 8 6 C7.34 6.66 6.68 7.32 6 8 C4.68 8 3.36 8 2 8 C2 7.34 2 6.68 2 6 C1.34 6 0.68 6 0 6 C0 4.02 0 2.04 0 0 Z " fill="#587C89" transform="translate(32,20)"/>
<path d="M0 0 C1.98 0 3.96 0 6 0 C4.68 2.31 3.36 4.62 2 7 C0.68 6.34 -0.64 5.68 -2 5 C-1.34 3.35 -0.68 1.7 0 0 Z " fill="#51879A" transform="translate(17,10)"/>
<path d="M0 0 C0.66 0 1.32 0 2 0 C2.33 1.65 2.66 3.3 3 5 C3.66 5 4.32 5 5 5 C5.33 3.35 5.66 1.7 6 0 C7.25541557 3.76624671 6.37061958 5.37188934 5 9 C4.34 9 3.68 9 3 9 C2.01 6.03 1.02 3.06 0 0 Z " fill="#C4CECF" transform="translate(32,18)"/>
<path d="M0 0 C2.64 0 5.28 0 8 0 C7.01 0.495 7.01 0.495 6 1 C5.34444881 3.52733235 5.34444881 3.52733235 5 6 C4.34 6 3.68 6 3 6 C2.87625 5.195625 2.7525 4.39125 2.625 3.5625 C2.315625 2.2940625 2.315625 2.2940625 2 1 C1.34 0.67 0.68 0.34 0 0 Z " fill="#5B7784" transform="translate(32,17)"/>
<path d="M0 0 C0.99 0.33 1.98 0.66 3 1 C1.37660195 2.70884005 -0.29319053 4.37446717 -2 6 C-2.66 6 -3.32 6 -4 6 C-4 4.68 -4 3.36 -4 2 C-2.68 2 -1.36 2 0 2 C0 1.34 0 0.68 0 0 Z " fill="#54899A" transform="translate(12,16)"/>
<path d="M0 0 C0.625 1.8125 0.625 1.8125 1 4 C0.01 5.485 0.01 5.485 -1 7 C-1.66 7 -2.32 7 -3 7 C-3 5.35 -3 3.7 -3 2 C-2.01 2 -1.02 2 0 2 C0 1.34 0 0.68 0 0 Z " fill="#CFD4D8" transform="translate(21,20)"/>
<path d="M0 0 C0.33 0.99 0.66 1.98 1 3 C-0.32 3 -1.64 3 -3 3 C-3 3.66 -3 4.32 -3 5 C-3.66 5 -4.32 5 -5 5 C-5 3.68 -5 2.36 -5 1 C-3.35 0.67 -1.7 0.34 0 0 Z " fill="#5A89A1" transform="translate(27,19)"/>
</svg>
