<?xml version="1.0" encoding="UTF-8"?>
<svg version="1.1" xmlns="http://www.w3.org/2000/svg" width="52" height="32">
<path d="M0 0 C16.5 0 33 0 50 0 C50 9.9 50 19.8 50 30 C43.68179667 30.28080904 37.36858695 30.54271298 31.04858398 30.75683594 C28.89971441 30.83530088 26.75121595 30.92473381 24.60327148 31.02539062 C21.51318206 31.16828493 18.4238989 31.27152178 15.33203125 31.3671875 C13.89426079 31.44644974 13.89426079 31.44644974 12.42744446 31.52731323 C11.07661018 31.55802414 11.07661018 31.55802414 9.69848633 31.58935547 C8.91016922 31.62044403 8.12185211 31.65153259 7.30964661 31.68356323 C5 31 5 31 0 25 C0 16.75 0 8.5 0 0 Z " fill="#719E31" transform="translate(1,1)"/>
<path d="M0 0 C7.92 0 15.84 0 24 0 C22.72485508 2.55028983 21.59658703 2.93081711 19 4 C18.01 4 17.02 4 16 4 C15.67 4.99 15.34 5.98 15 7 C14.34 7 13.68 7 13 7 C13.33 8.98 13.66 10.96 14 13 C14.66 13 15.32 13 16 13 C16 13.66 16 14.32 16 15 C16.556875 15.226875 17.11375 15.45375 17.6875 15.6875 C20 17 20 17 22.5 19.5625 C24.86027002 21.86376327 25.81596775 22.64621864 29 23 C29 23.99 29 24.98 29 26 C29.433125 25.525625 29.86625 25.05125 30.3125 24.5625 C32 23 32 23 35 22 C35 22.99 35 23.98 35 25 C34.01 25 33.02 25 32 25 C32 25.66 32 26.32 32 27 C27.90887515 29.04556242 22.74694812 28.36114667 18.25 28.4375 C17.16460938 28.48326172 16.07921875 28.52902344 14.9609375 28.57617188 C5.95318341 28.702809 5.95318341 28.702809 2.2578125 25.68359375 C-1.29337111 21.26749557 -0.6434398 16.00092269 -0.375 10.625 C-0.25125 7.11875 -0.1275 3.6125 0 0 Z " fill="#6F9933" transform="translate(2,2)"/>
<path d="M0 0 C0.556875 0.391875 1.11375 0.78375 1.6875 1.1875 C1.6875 1.8475 1.6875 2.5075 1.6875 3.1875 C2.27015625 3.44789063 2.8528125 3.70828125 3.453125 3.9765625 C5.83406439 5.26693175 7.5053497 6.67163496 9.4375 8.5625 C10.05109375 9.14773438 10.6646875 9.73296875 11.296875 10.3359375 C12.6875 12.1875 12.6875 12.1875 12.6875 16.1875 C13.6775 16.5175 14.6675 16.8475 15.6875 17.1875 C15.0275 17.8475 14.3675 18.5075 13.6875 19.1875 C13.03982207 21.75811311 13.03982207 21.75811311 12.6875 24.1875 C12.0275 23.8575 11.3675 23.5275 10.6875 23.1875 C7.7620356 22.9638932 7.7620356 22.9638932 5.6875 24.1875 C5.6875 23.1975 5.6875 22.2075 5.6875 21.1875 C4.800625 21.14625 3.91375 21.105 3 21.0625 C-1.54269486 19.86254287 -2.53051551 17.89681265 -5.3125 14.1875 C-5.9725 13.8575 -6.6325 13.5275 -7.3125 13.1875 C-7.3125 12.5275 -7.3125 11.8675 -7.3125 11.1875 C-7.9725 11.1875 -8.6325 11.1875 -9.3125 11.1875 C-9.9725 9.8675 -10.6325 8.5475 -11.3125 7.1875 C-4.82936047 -1.69680233 -4.82936047 -1.69680233 0 0 Z " fill="#929490" transform="translate(25.3125,3.8125)"/>
<path d="M0 0 C16.5 0 33 0 50 0 C50 9.9 50 19.8 50 30 C43.68179667 30.28080904 37.36858695 30.54271298 31.04858398 30.75683594 C28.89971441 30.83530088 26.75121595 30.92473381 24.60327148 31.02539062 C21.51318206 31.16828493 18.4238989 31.27152178 15.33203125 31.3671875 C13.89426079 31.44644974 13.89426079 31.44644974 12.42744446 31.52731323 C11.07661018 31.55802414 11.07661018 31.55802414 9.69848633 31.58935547 C8.91016922 31.62044403 8.12185211 31.65153259 7.30964661 31.68356323 C5 31 5 31 0 25 C0 16.75 0 8.5 0 0 Z M1 1 C1 8.26 1 15.52 1 23 C5.93567572 28.865241 5.93567572 28.865241 9.31600952 29.7215271 C10.04881134 29.70820343 10.78161316 29.69487976 11.53662109 29.68115234 C12.37703949 29.68069916 13.21745789 29.68024597 14.08334351 29.67977905 C14.97107452 29.64881134 15.85880554 29.61784363 16.7734375 29.5859375 C17.6971817 29.57744781 18.6209259 29.56895813 19.57266235 29.56021118 C22.50798764 29.5267631 25.44051261 29.45150164 28.375 29.375 C30.37105393 29.34488921 32.36715114 29.31751536 34.36328125 29.29296875 C39.24412024 29.23211041 44.11894634 29.11469839 49 29 C49 19.76 49 10.52 49 1 C33.16 1 17.32 1 1 1 Z " fill="#9BDA44" transform="translate(1,1)"/>
<path d="M0 0 C0.556875 0.391875 1.11375 0.78375 1.6875 1.1875 C1.378125 1.785625 1.06875 2.38375 0.75 3 C-0.41459704 5.27706772 -0.41459704 5.27706772 -1.3125 8.1875 C-0.75820313 8.74179688 -0.20390625 9.29609375 0.3671875 9.8671875 C3.140625 12.640625 5.9140625 15.4140625 8.6875 18.1875 C3.60414275 18.03345887 1.32995282 15.16681568 -1.95703125 11.68359375 C-2.40433594 11.18988281 -2.85164063 10.69617187 -3.3125 10.1875 C-2.91417969 10.64640625 -2.51585937 11.1053125 -2.10546875 11.578125 C0.59892062 14.71021585 3.26741771 17.82627459 5.6875 21.1875 C2.71651177 21.0493145 0.46924052 20.9289883 -1.75390625 18.8203125 C-2.97168203 17.30081914 -4.14414147 15.74531137 -5.3125 14.1875 C-5.9725 13.8575 -6.6325 13.5275 -7.3125 13.1875 C-7.3125 12.5275 -7.3125 11.8675 -7.3125 11.1875 C-7.9725 11.1875 -8.6325 11.1875 -9.3125 11.1875 C-9.9725 9.8675 -10.6325 8.5475 -11.3125 7.1875 C-4.82936047 -1.69680233 -4.82936047 -1.69680233 0 0 Z " fill="#BFC0BD" transform="translate(25.3125,3.8125)"/>
<path d="M0 0 C3.10202926 1.38630511 5.32411399 3.00094916 7.75 5.375 C8.36359375 5.96023437 8.9771875 6.54546875 9.609375 7.1484375 C11 9 11 9 11 13 C11.66 13.33 12.32 13.66 13 14 C12.01 14.33 11.02 14.66 10 15 C10 14.34 10 13.68 10 13 C9.319375 12.979375 8.63875 12.95875 7.9375 12.9375 C3.53084593 11.53112104 1.05237626 8.3690493 -2 5 C-1.34 3.35 -0.68 1.7 0 0 Z " fill="#E4E4E4" transform="translate(27,7)"/>
<path d="M0 0 C4.13621084 3.3810038 7.81316569 6.66590534 11 11 C7.81920181 10.92426671 5.68133298 10.58507402 3.23046875 8.48046875 C0.15642307 5.06086289 0.15642307 5.06086289 -1 3 C-0.67 2.01 -0.34 1.02 0 0 Z " fill="#E2E8DF" transform="translate(20,14)"/>
<path d="M0 0 C2.88437779 1.29299694 4.87219421 2.65941363 7 5 C6.67 5.66 6.34 6.32 6 7 C5.01 7 4.02 7 3 7 C4.32 8.65 5.64 10.3 7 12 C3.18315774 10.44499019 0.80804268 7.96404505 -2 5 C-1.34 3.35 -0.68 1.7 0 0 Z " fill="#F4F4F4" transform="translate(27,7)"/>
<path d="M0 0 C3.23861303 1.44424635 5.61969163 3.25772247 8.25 5.625 C8.95640625 6.25664062 9.6628125 6.88828125 10.390625 7.5390625 C10.92171875 8.02117188 11.4528125 8.50328125 12 9 C10.265625 9.73828125 10.265625 9.73828125 8 10 C5.859375 8.41796875 5.859375 8.41796875 3.75 6.1875 C3.04359375 5.45917969 2.3371875 4.73085938 1.609375 3.98046875 C0 2 0 2 0 0 Z " fill="#F8F8F8" transform="translate(22,12)"/>
<path d="M0 0 C1.33333333 0.66666667 2.66666667 1.33333333 4 2 C4.680625 2.268125 5.36125 2.53625 6.0625 2.8125 C8.69695908 4.42716847 9.6590641 6.2510814 11 9 C11 9.99 11 10.98 11 12 C8.33333333 9.33333333 5.66666667 6.66666667 3 4 C2.41863281 3.43925781 1.83726563 2.87851563 1.23828125 2.30078125 C0 1 0 1 0 0 Z " fill="#61783C" transform="translate(26,4)"/>
<path d="M0 0 C1.32 0.66 2.64 1.32 4 2 C3.34 3.32 2.68 4.64 2 6 C1.01 6 0.02 6 -1 6 C-1.625 4.125 -1.625 4.125 -2 2 C-1.34 1.34 -0.68 0.68 0 0 Z " fill="#F4F6F0" transform="translate(23,3)"/>
<path d="M0 0 C1.98 1.65 3.96 3.3 6 5 C4.02 5.99 4.02 5.99 2 7 C0.4375 5.1875 0.4375 5.1875 -1 3 C-0.67 2.01 -0.34 1.02 0 0 Z " fill="#EEF0EC" transform="translate(20,14)"/>
<path d="M0 0 C1.32 0 2.64 0 4 0 C4 1.98 4 3.96 4 6 C2.68 5.34 1.36 4.68 0 4 C0 2.68 0 1.36 0 0 Z " fill="#68863C" transform="translate(38,16)"/>
<path d="M0 0 C2.88437779 1.29299694 4.87219421 2.65941363 7 5 C6.67 5.66 6.34 6.32 6 7 C3.95880212 5.38405168 1.95927063 3.7143618 0 2 C0 1.34 0 0.68 0 0 Z " fill="#89C944" transform="translate(1,24)"/>
</svg>
