<?xml version="1.0" encoding="UTF-8"?>
<svg version="1.1" xmlns="http://www.w3.org/2000/svg" width="52" height="32">
<path d="M0 0 C0 9.9 0 19.8 0 30 C-6.31877856 30.13786426 -12.63233077 30.25726151 -18.95141602 30.32958984 C-21.10003346 30.35974019 -23.24852805 30.40066808 -25.39672852 30.45263672 C-28.48745023 30.52552773 -31.57654359 30.55947388 -34.66796875 30.5859375 C-36.10573921 30.63238907 -36.10573921 30.63238907 -37.57255554 30.67977905 C-43.98848789 30.68300774 -43.98848789 30.68300774 -46.73347473 28.82949829 C-49.7978969 25.49980082 -50.6069184 22.57736453 -50.48828125 18.1640625 C-50.47216797 17.10058594 -50.45605469 16.03710938 -50.43945312 14.94140625 C-50.39755859 13.84699219 -50.35566406 12.75257812 -50.3125 11.625 C-50.28994141 10.50738281 -50.26738281 9.38976562 -50.24414062 8.23828125 C-50.18543378 5.4908011 -50.10336846 2.74610239 -50 0 C-33.27278282 -0.67912933 -16.71353763 -1.34305213 0 0 Z " fill="#719C32" transform="translate(51,1)"/>
<path d="M0 0 C12.54 0 25.08 0 38 0 C38.66 2.97 39.32 5.94 40 9 C39.01 8.34 38.02 7.68 37 7 C36.8125 4.375 36.8125 4.375 37 2 C36.01 2 35.02 2 34 2 C33.67 2.99 33.34 3.98 33 5 C32.34 5 31.68 5 31 5 C31 5.99 31 6.98 31 8 C27.79156214 9.09762348 25.67645737 9.27547557 22.515625 7.98828125 C20.78517038 7.09489565 19.06807442 6.17503216 17.3671875 5.2265625 C15.21165991 4.10967197 13.36836387 3.46930713 11 3 C11.43504858 5.52328175 11.70922925 6.73159623 13.625 8.5 C14.07875 8.995 14.5325 9.49 15 10 C14.76524034 13.63877474 13.31532919 14.91289441 11 18 C14.63 18 18.26 18 22 18 C22.33 18.66 22.66 19.32 23 20 C23.99 20.33 24.98 20.66 26 21 C26 21.99 26 22.98 26 24 C26.928125 24.144375 27.85625 24.28875 28.8125 24.4375 C32 25 32 25 35 26 C34.01 23.03 33.02 20.06 32 17 C35 18 35 18 36.25 20.3125 C37.0275526 23.09873015 36.98726527 24.33438378 36 27 C30.50648179 28.61685162 24.80537625 28.34748311 19.125 28.4375 C17.36736328 28.50614258 17.36736328 28.50614258 15.57421875 28.57617188 C5.90024053 28.70244968 5.90024053 28.70244968 2.203125 25.68359375 C-1.28615951 21.26474919 -0.64190949 15.97027597 -0.375 10.625 C-0.25125 7.11875 -0.1275 3.6125 0 0 Z " fill="#6F9834" transform="translate(2,2)"/>
<path d="M0 0 C1 3 2 6 3 9 C1.906875 8.938125 0.81375 8.87625 -0.3125 8.8125 C-3.91902754 8.61458928 -3.91902754 8.61458928 -5.73046875 10.51171875 C-6.14941406 11.00285156 -6.56835938 11.49398438 -7 12 C-6.6390625 12.53109375 -6.278125 13.0621875 -5.90625 13.609375 C-5.21015625 14.66898438 -5.21015625 14.66898438 -4.5 15.75 C-4.0359375 16.44609375 -3.571875 17.1421875 -3.09375 17.859375 C-2 20 -2 20 -2 24 C-3.48206495 23.745504 -4.96068615 23.47088238 -6.4375 23.1875 C-7.26121094 23.03667969 -8.08492187 22.88585937 -8.93359375 22.73046875 C-9.61550781 22.48941406 -10.29742187 22.24835937 -11 22 C-11.33 21.01 -11.66 20.02 -12 19 C-12.99 19 -13.98 19 -15 19 C-15 18.01 -15 17.02 -15 16 C-18.63 16 -22.26 16 -26 16 C-25.34 14.68 -24.68 13.36 -24 12 C-23.62331656 10.34259285 -23.27942455 8.67654729 -23 7 C-23.99 6.34 -24.98 5.68 -26 5 C-26 3.68 -26 2.36 -26 1 C-21.84334572 1.33931872 -18.98255867 1.8230991 -15.4375 4.0625 C-11.84314105 6.08841141 -10.03580973 6.39373753 -6 6 C-6 5.01 -6 4.02 -6 3 C-3.9398797 0.3512739 -3.48011144 0 0 0 Z " fill="#E8E8E8" transform="translate(39,4)"/>
<path d="M0 0 C0 9.9 0 19.8 0 30 C-6.31877856 30.13786426 -12.63233077 30.25726151 -18.95141602 30.32958984 C-21.10003346 30.35974019 -23.24852805 30.40066808 -25.39672852 30.45263672 C-28.48745023 30.52552773 -31.57654359 30.55947388 -34.66796875 30.5859375 C-36.10573921 30.63238907 -36.10573921 30.63238907 -37.57255554 30.67977905 C-43.98848789 30.68300774 -43.98848789 30.68300774 -46.73347473 28.82949829 C-49.7978969 25.49980082 -50.6069184 22.57736453 -50.48828125 18.1640625 C-50.47216797 17.10058594 -50.45605469 16.03710938 -50.43945312 14.94140625 C-50.39755859 13.84699219 -50.35566406 12.75257812 -50.3125 11.625 C-50.28994141 10.50738281 -50.26738281 9.38976562 -50.24414062 8.23828125 C-50.18543378 5.4908011 -50.10336846 2.74610239 -50 0 C-33.27278282 -0.67912933 -16.71353763 -1.34305213 0 0 Z M-49 1 C-49 8.26 -49 15.52 -49 23 C-44.06432428 28.865241 -44.06432428 28.865241 -40.68399048 29.7215271 C-39.95118866 29.70820343 -39.21838684 29.69487976 -38.46337891 29.68115234 C-37.62296051 29.68069916 -36.78254211 29.68024597 -35.91665649 29.67977905 C-35.02892548 29.64881134 -34.14119446 29.61784363 -33.2265625 29.5859375 C-32.3028183 29.57744781 -31.3790741 29.56895813 -30.42733765 29.56021118 C-27.49201236 29.5267631 -24.55948739 29.45150164 -21.625 29.375 C-19.62894607 29.34488921 -17.63284886 29.31751536 -15.63671875 29.29296875 C-10.75587976 29.23211041 -5.88105366 29.11469839 -1 29 C-1 19.76 -1 10.52 -1 1 C-16.84 1 -32.68 1 -49 1 Z " fill="#9AD543" transform="translate(51,1)"/>
<path d="M0 0 C1.67739258 0.00966797 1.67739258 0.00966797 3.38867188 0.01953125 C5.13954102 0.04466797 5.13954102 0.04466797 6.92578125 0.0703125 C8.69405273 0.08384766 8.69405273 0.08384766 10.49804688 0.09765625 C13.41166151 0.12124827 16.32487017 0.1541671 19.23828125 0.1953125 C19.89828125 3.1653125 20.55828125 6.1353125 21.23828125 9.1953125 C20.24828125 8.5353125 19.25828125 7.8753125 18.23828125 7.1953125 C18.05078125 4.5703125 18.05078125 4.5703125 18.23828125 2.1953125 C17.24828125 2.1953125 16.25828125 2.1953125 15.23828125 2.1953125 C14.90828125 3.1853125 14.57828125 4.1753125 14.23828125 5.1953125 C13.57828125 5.1953125 12.91828125 5.1953125 12.23828125 5.1953125 C12.23828125 6.1853125 12.23828125 7.1753125 12.23828125 8.1953125 C9.02984339 9.29293598 6.91473862 9.47078807 3.75390625 8.18359375 C2.02345163 7.29020815 0.30635567 6.37034466 -1.39453125 5.421875 C-3.55005884 4.30498447 -5.39335488 3.66461963 -7.76171875 3.1953125 C-8.09171875 4.1853125 -8.42171875 5.1753125 -8.76171875 6.1953125 C-8.76171875 4.8753125 -8.76171875 3.5553125 -8.76171875 2.1953125 C-5.31537993 -0.10224672 -4.05103484 -0.04112726 0 0 Z " fill="#6C9333" transform="translate(20.76171875,1.8046875)"/>
<path d="M0 0 C1.65 0 3.3 0 5 0 C5.66 2.97 6.32 5.94 7 9 C6.01 8.34 5.02 7.68 4 7 C3.8125 4.375 3.8125 4.375 4 2 C3.01 2 2.02 2 1 2 C0.67 2.99 0.34 3.98 0 5 C-0.66 5 -1.32 5 -2 5 C-2 5.99 -2 6.98 -2 8 C-3.98 8.33 -5.96 8.66 -8 9 C-8.33 8.01 -8.66 7.02 -9 6 C-7.02 6 -5.04 6 -3 6 C-2.67 4.68 -2.34 3.36 -2 2 C-1.34 2 -0.68 2 0 2 C0 1.34 0 0.68 0 0 Z " fill="#70814F" transform="translate(35,2)"/>
<path d="M0 0 C0.66 2.64 1.32 5.28 2 8 C1.195625 7.814375 0.39125 7.62875 -0.4375 7.4375 C-4.78253084 6.90389972 -8.68989724 7.3774296 -13 8 C-10.35261084 6.5393715 -9.10551666 6 -6 6 C-6 5.01 -6 4.02 -6 3 C-3.9398797 0.3512739 -3.48011144 0 0 0 Z " fill="#F7F7F7" transform="translate(39,4)"/>
<path d="M0 0 C2.31 0.33 4.62 0.66 7 1 C7 1.66 7 2.32 7 3 C6.34 3.66 5.68 4.32 5 5 C4.67 5.99 4.34 6.98 4 8 C3.67 7.34 3.34 6.68 3 6 C2.01 5.34 1.02 4.68 0 4 C0 2.68 0 1.36 0 0 Z " fill="#F5F5F1" transform="translate(13,5)"/>
<path d="M0 0 C2.62386487 3.06117568 3 3.73173127 3 8 C1.35 7.67 -0.3 7.34 -2 7 C-1.34 4.69 -0.68 2.38 0 0 Z " fill="#DFE1DC" transform="translate(34,20)"/>
<path d="M0 0 C1.98 0.495 1.98 0.495 4 1 C3.5206753 5.31392226 2.2542015 7.16569547 -1 10 C-0.73958333 7.94921875 -0.47916667 5.8984375 -0.21875 3.84765625 C0.01959535 2.14458268 0.01959535 2.14458268 0 1 C0 0.67 0 0.34 0 0 Z " fill="#66734F" transform="translate(13,10)"/>
<path d="M0 0 C0 0.66 0 1.32 0 2 C-1.0725 1.979375 -2.145 1.95875 -3.25 1.9375 C-6.14790424 1.9857984 -8.28612141 2.13155885 -11 3 C-10.67 2.01 -10.34 1.02 -10 0 C-6.30581799 -1.231394 -3.7943739 -0.64432764 0 0 Z " fill="#E3E8DB" transform="translate(42,11)"/>
</svg>
